<svg width="83" height="87" xmlns="http://www.w3.org/2000/svg" xml:space="preserve" version="1.1">
 <g>
  <title>Layer 1</title>
  <g id="svg_450">
   <path id="svg_451" d="m75.30262,13.88367c-0.59,-1.92 -1.54,-3.38 -2.74,-4.45c-0.92,-0.84 -1.97,-1.35 -3.14,-1.61c-1.46,-0.28 -2.84,-0.13 -4.25,0.48c-0.43,0.2 -0.92,0.59 -1.51,1.12c-0.41,0.36 -0.79,0.79 -1.15,1.2c-0.05,0.09 -0.12,0.17 -0.19,0.26c-0.29,-2.79 -0.79,-4.71 -1.52,-5.79c-0.84,-1.15 -1.94,-2 -3.35,-2.58c-1.51,-0.64 -3.09,-0.82 -4.76,-0.54c-2.1,0.38 -3.5,1.41 -4.27,3.17c-0.26,0.54 -0.36,1.18 -0.36,1.87c0,0.18 0.01,0.37 0.03,0.56c-0.04,0 -0.09,-0.01 -0.13,0l-0.02,0c-0.19,0.01 -0.4,0.09 -0.63,0.22c-0.05,-0.03 -0.1,-0.06 -0.16,-0.09c-0.72,-0.43 -1.43,-0.51 -2.2,-0.36c-0.74,0.18 -1.25,0.64 -1.56,1.33c-0.18,0.39 -0.3,0.66 -0.37,0.81c-0.27,-0.12 -0.65,-0.24 -1.14,-0.35c-0.79,-0.2 -1.61,-0.23 -2.43,-0.1c-0.84,0.13 -1.69,0.38 -2.58,0.77c-0.89,0.41 -1.92,1.31 -3.12,2.66c-0.92,1.08 -1.51,2.48 -1.76,4.22c-0.18,1.46 -0.05,2.79 0.36,4.02c0.44,1.2 0.77,2.12 1.1,2.76c0.28,0.61 0.59,1.13 0.87,1.46c0.22,0.3 0.52,0.71 0.88,1.22c-0.24,-0.1 -0.5,-0.22 -0.8,-0.38c-0.89,-0.41 -1.56,-1.46 -2.07,-3.07c-0.56,1.2 -0.79,2.46 -0.74,3.71c0.08,1.28 0.44,2.2 1.07,2.79c0.62,0.56 1.3,0.87 2.1,0.84c0.79,0 1.51,-0.28 2.2,-0.74c0.64,-0.51 1.05,-1.51 1.18,-3.02c-0.01,-0.07 -0.03,-0.11 -0.05,-0.16c-0.02,-1.16 0.08,-2.42 0.26,-3.8c0.18,-1.41 0.72,-2.63 1.61,-3.71c0.7,-0.83 1.93,-1.41 3.73,-1.75c0,0.02 0,0.04 0,0.06c0,0.37 0.03,0.75 0.09,1.13c-0.59,0.58 -1.09,1.33 -1.54,2.26c-0.05,-0.44 -0.02,-0.96 0.1,-1.56c-0.32,0.75 -0.43,1.43 -0.33,2.06c-0.07,0.17 -0.15,0.35 -0.22,0.53c-0.13,0.31 -0.24,0.63 -0.34,0.96c-0.19,-0.29 -0.31,-0.76 -0.37,-1.45c-0.15,0.94 -0.08,1.58 0.22,1.95c-0.11,0.41 -0.21,0.84 -0.29,1.27c-0.2,-0.16 -0.32,-0.47 -0.37,-0.92c-0.09,0.75 0,1.22 0.28,1.42c-0.09,0.57 -0.15,1.16 -0.18,1.76c-0.06,0.86 -0.07,1.66 -0.05,2.38c-0.19,0.15 -0.37,0.43 -0.53,0.89c0.2,-0.28 0.38,-0.47 0.54,-0.56c0.02,0.34 0.04,0.66 0.07,0.97c-0.31,0.22 -0.52,0.65 -0.64,1.29c0.22,-0.48 0.44,-0.8 0.68,-0.98c0.02,0.19 0.05,0.37 0.08,0.55c0.02,0.13 0.05,0.25 0.07,0.36c-0.17,0.35 -0.24,0.74 -0.19,1.19c0.03,-0.35 0.13,-0.65 0.27,-0.91c0.1,0.33 0.23,0.61 0.39,0.86c-0.09,0.08 -0.17,0.17 -0.25,0.27c-0.25,0.38 -0.31,0.87 -0.18,1.41c0.01,0 0.01,0 0.01,0c0.12,0.48 0.3,0.92 0.52,1.32c0.01,0.41 0.03,0.81 0.08,1.21c0.15,1.5 0.48,2.7 0.98,3.61c-1.14,-0.09 -2.22,0.05 -3.24,0.4c-1,-4.86 -3.57,-8.45 -7.71,-10.77c-1.89,-1.07 -3.91,-1.74 -6.06,-2.02c-1.99,-0.28 -3.68,-0.15 -5.09,0.33c-3.12,1.1 -5.24,2.89 -6.39,5.34c-1,2.15 -0.92,4.58 0.26,7.34c0.05,0.11 0.11,0.21 0.16,0.32l-0.04,-0.04c-0.54,-0.36 -1.15,-0.64 -1.84,-0.82c-0.23,-0.05 -0.46,-0.1 -0.72,-0.15c-0.82,-0.13 -1.64,-0.18 -2.43,-0.08c-1.79,0.2 -3.25,1.02 -4.35,2.4c-1.94,2.48 -2.53,5.27 -1.76,8.41c0.38,1.53 1.07,2.97 2.1,4.24c1.02,1.36 2.33,2.48 3.89,3.38c-0.28,0.18 -0.54,0.38 -0.82,0.56c-0.72,0.59 -1.33,1.28 -1.79,2.1c-0.67,1.1 -0.95,2.25 -0.92,3.4c0.05,1.15 0.38,2.22 1.02,3.14c0.49,0.69 1.41,1.41 2.76,2.1c-0.13,0.26 -0.23,0.51 -0.28,0.74c-0.1,0.36 -0.15,0.72 -0.13,1.05c0.03,0.64 0.2,1.2 0.56,1.69c0.31,0.43 0.82,0.77 1.48,1.02c0.29,0.13 0.98,0.35 2.05,0.66c-0.24,0.26 -0.68,0.47 -1.33,0.54c-0.18,0.02 -0.36,0.02 -0.56,0.05c-1.05,0.03 -2.12,-0.26 -3.2,-0.82c-0.74,-0.41 -1.33,-0.87 -1.76,-1.43c-0.23,-0.28 -0.44,-0.61 -0.56,-0.95c0.05,0.31 0.13,0.64 0.2,0.92c0.33,1.15 0.77,2.2 1.36,3.09c0.77,1.2 1.64,2 2.58,2.38c1.76,0.69 3.68,0.67 5.75,-0.18c1.64,-0.72 2.61,-1.58 2.97,-2.63c0.08,-0.28 0.13,-0.61 0.13,-0.92c0,-0.18 0,-0.31 -0.03,-0.46c-0.04,-0.33 -0.14,-0.63 -0.29,-0.91c-0.16,-0.34 -0.42,-0.64 -0.75,-0.91l-0.5,-0.39c1.8,-0.1 3.53,-0.46 5.12,-1.15c1.33,-0.54 2.48,-1.25 3.45,-2.12l0.03,0c0.84,-0.79 1.77,-1.89 2.69,-3.3l0.03,0l0,-0.03c1.25,-2.22 1.71,-4.4 1.43,-6.52c-0.18,-1.41 -0.95,-2.86 -2.22,-4.32c-0.29,-0.31 -0.58,-0.61 -0.89,-0.94c3.41,-2.23 5.25,-4.66 5.47,-7.29c0.13,-1.51 -0.15,-2.97 -0.87,-4.45c-0.49,-1.02 -1.2,-2 -2.05,-2.84c-0.42,-0.45 -0.87,-0.85 -1.37,-1.23c0.9,0.07 1.67,0.18 2.32,0.36c0.87,0.26 1.66,0.56 2.38,0.92c1.49,0.82 2.75,1.77 3.79,2.85c-0.27,0.3 -0.54,0.63 -0.79,1.01c-0.56,0.84 -1,1.97 -1.36,3.38c-0.23,0.95 -0.33,2.02 -0.33,3.25c0.03,1.2 0.23,2.56 0.64,4.09c0.29,1.06 0.54,1.95 0.74,2.64l0,0.09c0.11,0.52 0.17,1 0.19,1.45c-0.46,0.04 -0.94,0.14 -1.43,0.3c-0.04,0.01 -0.07,0.03 -0.11,0.05c-0.33,0.24 -0.53,0.52 -0.62,0.84c-1.63,3.49 -2.65,7.2 -3.07,11.09l-0.03,-0.01c0,0 -0.03,0.39 -0.07,1.08c-0.04,0.5 -0.06,1 -0.08,1.51c-0.05,1.05 -0.09,2.36 -0.11,3.86c-0.04,3.49 1.13,4.23 3.18,4.58c0.89,0.15 7.26,0.48 7.98,-0.61c0.05,-0.07 0.08,-0.14 0.11,-0.22c0.01,-0.02 0.03,-0.04 0.04,-0.06c0.19,-0.37 0.16,-0.85 -0.05,-1.42c0.64,-0.01 1.6,-0.07 2.07,-0.11c0.19,1.55 0.62,2.36 1.15,2.83c0.66,0.59 1.49,0.67 1.69,0.7c0.41,0.06 1.42,0.32 3.34,0.29c3.91,-0.06 4.62,-0.11 5.28,-0.69c0.09,-0.07 0.17,-0.15 0.24,-0.23c0,0 0,0 0,0c0.12,-0.13 0.19,-0.28 0.22,-0.46c0.1,-0.4 0.03,-0.87 -0.23,-1.43c1.1,0 3.52,-0.04 4.78,-0.32c0.76,-0.18 1.07,-0.58 1.11,-1.1c0.06,-0.36 -0.03,-0.79 -0.29,-1.3c-0.45,-0.92 -0.87,-1.77 -1.26,-2.54l-0.11,-0.21c-0.01,-0.01 -0.02,-0.03 -0.03,-0.04c-0.19,-0.48 -0.36,-0.96 -0.5,-1.38c-1.24,-4.12 -1.95,-8.94 -2.2,-14.47c-0.05,-0.73 -0.14,-1.07 -0.26,-1.31c0.6,-0.36 1.19,-0.78 1.72,-1.29l-0.04,0c1.63,-1.47 2.79,-3.42 3.48,-5.87c0.39,-1.28 0.62,-2.43 0.72,-3.48l0.03,-0.13c0.1,-1 0.15,-1.69 0.15,-2.1c0,-0.01 0,-0.02 0,-0.03c0.22,-0.16 0.42,-0.35 0.62,-0.58c0.23,-0.28 0.41,-0.56 0.61,-0.87c0.61,-1.38 0.59,-2.48 -0.05,-3.27c-0.15,-0.17 -0.32,-0.33 -0.5,-0.48c0.02,-0.12 0.04,-0.23 0.06,-0.35c0.86,0.13 1.68,0.08 2.5,-0.11c2.25,-0.36 3.84,-1.76 4.73,-4.27c0.44,-1.15 0.59,-2.35 0.51,-3.71c-0.06,-1.08 -0.26,-1.92 -0.6,-2.57c1.01,-0.22 1.87,-0.64 2.59,-1.24c0.92,-0.82 1.64,-1.82 2.15,-2.99c0.46,-1.15 0.77,-2.48 0.89,-4.07c0.17,-1.96 -0.06,-4.03 -0.72,-6.08"/>
   <path id="svg_452" d="m17.89262,74.14367c0,-0.01 0,-0.01 -0.01,-0.02c0.01,0.01 0.01,0.02 0.01,0.02c0,0.01 0,0.01 0,0"/>
   <polyline id="svg_453" points="18.092613220214844,75.07367706298828 18.092613220214844,75.07367706298828 18.092613220214844,75.07367706298828 "/>
   <path id="svg_454" d="m18.09262,75.03367c0,-0.09 -0.01,-0.18 -0.03,-0.28c0.01,0.1 0.02,0.19 0.03,0.28c0,0 0,0 0,0"/>
   <path id="svg_455" d="m17.84262,74.04367c0,0 0,0 0,0c-0.02,-0.04 -0.04,-0.08 -0.06,-0.12c0.01,0.02 0.02,0.03 0.03,0.05c0.01,0.02 0.02,0.04 0.03,0.07"/>
   <path id="svg_456" d="m46.70262,8.26367c-0.03,-0.01 -0.06,-0.03 -0.09,-0.04c0.03,0.01 0.07,0.02 0.09,0.04c0.01,-0.01 0,0 0,0"/>
   <polygon id="svg_457" points="43.452613830566406,9.713668823242188 43.452613830566406,9.713668823242188 43.452613830566406,9.713668823242188 "/>
   <path id="svg_458" d="m12.13262,74.07367c-0.12,-0.06 -0.25,-0.13 -0.36,-0.19c0.11,0.07 0.24,0.13 0.36,0.19"/>
   <path id="svg_459" d="m13.26262,74.56367c-0.18,-0.07 -0.35,-0.13 -0.51,-0.2c0.16,0.07 0.33,0.14 0.51,0.2"/>
   <path id="svg_460" d="m12.67262,74.33367c-0.15,-0.07 -0.3,-0.13 -0.44,-0.2c0.15,0.07 0.29,0.13 0.44,0.2"/>
   <polyline id="svg_461" points="13.312614440917969,74.58365631103516 13.312614440917969,74.58365631103516 13.312614440917969,74.58365631103516 13.312614440917969,74.58365631103516 "/>
   <path id="svg_462" d="m16.22262,72.41367c-0.06,-0.03 -0.12,-0.06 -0.19,-0.09c-0.14,-0.07 -0.29,-0.12 -0.44,-0.18c0.15,0.05 0.3,0.11 0.44,0.18c0.07,0.02 0.13,0.06 0.19,0.09"/>
   <path id="svg_463" d="m14.89262,71.93367c0.16,0.04 0.32,0.08 0.47,0.13c-0.15,-0.05 -0.3,-0.09 -0.47,-0.13"/>
   <path id="svg_464" d="m20.01262,71.17367c-0.06,0.02 -0.13,0.03 -0.19,0.05c0.06,-0.02 0.12,-0.03 0.19,-0.05"/>
   <path id="svg_465" d="m46.55262,8.20367c-0.22,-0.07 -0.44,-0.13 -0.66,-0.17c0.22,0.04 0.44,0.1 0.66,0.17"/>
   <path id="svg_466" d="m43.00262,10.06367l0,0c-0.23,-0.06 -0.46,-0.1 -0.7,-0.14c0.24,0.04 0.47,0.09 0.7,0.14"/>
   <path id="svg_467" d="m9.43262,69.20367c-0.03,-0.02 -0.05,-0.04 -0.08,-0.07c0.02,0.02 0.05,0.04 0.08,0.07"/>
   <path id="svg_468" d="m10.06262,69.92367c-0.01,0.02 -0.01,0.03 -0.02,0.05c0.01,-0.02 0.01,-0.04 0.02,-0.05l0,0z"/>
   <path id="svg_469" d="m9.90262,70.49367c0.01,-0.04 0.01,-0.07 0.02,-0.11c-0.01,0.04 -0.01,0.07 -0.02,0.11"/>
   <path id="svg_470" d="m10.64262,73.06367c0.04,0.04 0.09,0.08 0.14,0.12c-0.05,-0.04 -0.1,-0.08 -0.14,-0.12"/>
   <path id="svg_471" d="m11.63262,73.80367c-0.1,-0.06 -0.2,-0.12 -0.29,-0.18c0.1,0.06 0.19,0.12 0.29,0.18"/>
   <path id="svg_472" d="m11.18262,73.51367c-0.07,-0.05 -0.15,-0.1 -0.21,-0.16c0.07,0.05 0.14,0.1 0.21,0.16"/>
   <path id="svg_473" d="m13.29262,75.61367c-0.07,0.04 -0.14,0.07 -0.21,0.11c0.07,-0.04 0.14,-0.07 0.21,-0.11"/>
   <path id="svg_474" d="m13.46262,75.50367c-0.02,0.01 -0.04,0.02 -0.05,0.03c0.01,0 0.03,-0.01 0.05,-0.03"/>
   <path id="svg_475" d="m16.37262,71.74367c0,0 -0.01,0 0,0c0.61,-0.06 1.23,-0.13 1.87,-0.22c0.31,-0.05 0.62,-0.1 0.92,-0.16c-0.3,0.06 -0.6,0.12 -0.92,0.16c-0.64,0.09 -1.26,0.17 -1.87,0.22"/>
   <polyline id="svg_476" points="21.602622985839844,70.69367218017578 21.602622985839844,70.69367218017578 21.602622985839844,70.69367218017578 21.602622985839844,70.69367218017578 "/>
   <path id="svg_477" d="m20.79262,70.96367c0.01,0 0.01,0 0.02,-0.01c-0.01,0 -0.01,0 -0.02,0.01"/>
   <path id="svg_478" d="m58.78262,46.72367c-0.64,-0.13 -1.33,-0.38 -2.05,-0.66c-0.77,-0.33 -1.3,-0.74 -1.66,-1.25l-0.28,0c-0.03,0.03 -0.1,0 -0.13,0.03c-0.02,0.1 -0.02,0.13 -0.02,0.18c0.13,0.26 0.33,0.51 0.67,0.82c0.31,0.28 0.74,0.54 1.3,0.74c0.51,0.21 1.13,0.36 1.82,0.49c-0.51,0.15 -1.23,0.26 -2.12,0.28c-1.25,0.02 -2.41,-0.26 -3.53,-0.95c-0.67,-0.43 -1.07,-0.95 -1.18,-1.59c-0.08,-0.38 0,-0.71 0.18,-1c0.48,-0.56 1.1,-0.84 1.89,-0.84c0.69,-0.03 1.38,0 2.02,0.05c0.18,0.03 0.38,0.05 0.62,0.08l0.1,0c-0.05,-0.03 -0.05,-0.08 -0.1,-0.08c-0.72,-0.31 -1.48,-0.49 -2.25,-0.51c-0.77,-0.05 -1.31,0 -1.59,0.08c-0.28,0.08 -0.49,0.18 -0.61,0.26c-0.13,0.05 -0.23,0.1 -0.31,0.15c-0.59,0.49 -0.84,1.15 -0.72,1.94c0.1,0.79 0.59,1.48 1.46,2c1.13,0.69 2.45,1 3.99,0.95l-0.03,0c0.69,0 1.46,-0.13 2.35,-0.43c0.43,-0.18 0.89,-0.36 1.33,-0.59l-1.15,-0.15z"/>
   <path id="svg_479" fill="#FFFFFF" d="m53.66262,42.96367c-0.79,0 -1.41,0.28 -1.89,0.84c-0.18,0.28 -0.26,0.61 -0.18,1c0.1,0.64 0.51,1.15 1.18,1.59c1.12,0.69 2.28,0.97 3.53,0.95c0.89,-0.03 1.61,-0.13 2.12,-0.28c-0.69,-0.13 -1.3,-0.28 -1.82,-0.49c-0.56,-0.2 -1,-0.46 -1.3,-0.74c-0.33,-0.31 -0.54,-0.56 -0.67,-0.82c0,-0.05 0,-0.08 0.02,-0.18c0.03,-0.03 0.1,0 0.13,-0.03l0.28,0c3.84,-0.1 4.3,-0.66 1.33,-1.71l-0.1,0c-0.23,-0.03 -0.44,-0.05 -0.62,-0.08c-0.63,-0.05 -1.32,-0.08 -2.01,-0.05m1,1.89l-0.05,0.08c-0.03,0 -0.03,-0.02 0,-0.02c-0.03,0 0.02,-0.03 0.05,-0.06" class="st0"/>
   <path id="svg_480" d="m54.61262,44.93367l0.05,-0.08c-0.02,0.03 -0.08,0.05 -0.05,0.05c-0.03,0.01 -0.03,0.03 0,0.03"/>
   <path id="svg_481" fill="#FFFFFF" d="m63.40262,41.78367c0.05,-0.36 0.05,-0.66 -0.05,-0.89c-0.08,-0.23 -0.13,-0.38 -0.18,-0.46c-0.2,-0.44 -0.62,-0.89 -1.23,-1.41l-1.41,-0.97c-2.69,0 -3.96,1.13 -3.94,3.45c0.33,1.1 0.05,1.74 -0.79,1.92c-0.84,0.2 -1.3,0.43 -1.46,0.64c-0.15,0.26 -0.1,0.46 0.08,0.61c2.48,0.46 4.32,0.62 5.52,0.41c1.23,-0.18 2.22,-0.84 3.02,-1.99c0.26,-0.51 0.39,-0.95 0.44,-1.31" class="st0"/>
   <path id="svg_482" d="m52.84262,32.81367c-1,0.79 -1.71,1.74 -2.15,2.79c-0.23,0.61 -0.36,1.18 -0.36,1.79c0,0.61 0.1,1.15 0.33,1.66c0.56,1.28 1.51,2.3 2.86,3.09c0.64,0.38 1.41,0.72 2.3,0.97l0.49,0.03c-0.08,-0.08 -0.13,-0.13 -0.15,-0.13c-0.84,-0.41 -1.41,-0.66 -1.64,-0.77c-0.08,-0.05 -0.26,-0.18 -0.61,-0.41c-0.1,-0.08 -0.23,-0.13 -0.36,-0.23c-1.2,-0.79 -2,-1.71 -2.35,-2.84c-0.33,-0.97 -0.26,-1.94 0.13,-2.97c0.41,-0.97 1.02,-1.82 1.94,-2.53c0.38,-0.31 0.79,-0.59 1.23,-0.77c0.48,-0.28 1.28,-0.64 2.35,-1.05c-0.18,-0.05 -0.38,-0.08 -0.59,-0.1c-0.92,0.26 -1.61,0.51 -2.12,0.72c-0.53,0.21 -0.97,0.47 -1.3,0.75"/>
   <path id="svg_483" fill="#FFFFFF" d="m56.86262,31.45367c-1.07,0.41 -1.87,0.77 -2.35,1.05c-0.44,0.18 -0.84,0.46 -1.23,0.77c-0.92,0.72 -1.53,1.56 -1.94,2.53c-0.38,1.02 -0.46,2 -0.13,2.97c0.36,1.12 1.15,2.05 2.35,2.84c0.13,0.1 0.26,0.15 0.36,0.23c0.36,0.23 0.54,0.36 0.61,0.41c0.23,0.1 0.79,0.36 1.64,0.77c0.03,0 0.08,0.05 0.15,0.13c1.79,0.77 3.38,-0.79 4.76,-4.76c1.38,-4.05 -0.03,-6.35 -4.22,-6.94" class="st0"/>
   <path id="svg_484" d="m70.95262,30.89367c-0.08,-1.28 -0.33,-2.23 -0.79,-2.92l0,-0.03c-0.23,-0.31 -0.41,-0.54 -0.56,-0.72l-0.03,0c-0.54,-0.59 -1.3,-1 -2.28,-1.25c-0.51,-0.15 -1.02,-0.26 -1.53,-0.26c-0.46,0 -0.97,0.05 -1.59,0.15l-0.25,0.08l-0.08,0c1.38,0.18 2.43,0.41 3.27,0.61c0.82,0.23 1.46,0.59 1.92,1.07l0,-0.02c0.05,0.08 0.13,0.15 0.2,0.28c0.18,0.23 0.28,0.38 0.31,0.38l0,0.03c0.38,0.61 0.64,1.48 0.69,2.63c0.08,1.23 -0.08,2.38 -0.46,3.45c-0.79,2.23 -2.2,3.5 -4.19,3.86c-1.74,0.26 -3.07,0.28 -4.01,0.05l-1.35,-0.36l0.79,0.42l0.95,0.65c0.61,0.51 1.02,0.97 1.23,1.41c0.05,0.08 0.1,0.23 0.18,0.46c0.1,0.23 0.1,0.54 0.05,0.89c-0.05,0.36 -0.18,0.79 -0.44,1.31c-0.79,1.15 -1.79,1.82 -3.02,1.99c-1.2,0.21 -3.04,0.05 -5.52,-0.41c-0.05,0.26 0.23,0.49 0.89,0.62c0.61,0.13 1.31,0.26 2.07,0.36c0.74,0.13 1.43,0.15 2.02,0.08c0.61,-0.05 1.12,-0.15 1.61,-0.36c0.43,-0.23 0.82,-0.44 1.15,-0.61c0.33,-0.21 0.64,-0.46 0.92,-0.79c0.23,-0.28 0.41,-0.56 0.61,-0.87c0.61,-1.38 0.59,-2.48 -0.05,-3.27c-0.32,-0.37 -0.73,-0.69 -1.21,-0.97c0.18,0.04 0.35,0.08 0.52,0.1c0.95,0.18 1.84,0.13 2.74,-0.08c2.25,-0.36 3.83,-1.76 4.73,-4.27c0.43,-1.13 0.58,-2.33 0.51,-3.69"/>
   <path id="svg_485" fill="#FFFFFF" d="m69.23262,27.90367l0,0c-0.07,-0.13 -0.15,-0.2 -0.2,-0.28l0,0.02c-0.46,-0.48 -1.1,-0.84 -1.92,-1.07c-0.84,-0.2 -1.89,-0.44 -3.27,-0.61l-2.02,0.18c-1.38,0.74 -2.33,1.43 -2.84,2.12c-0.56,0.64 -0.87,1.2 -1.07,1.61c-0.15,0.43 -0.38,1.46 -0.69,3.02c-0.28,1.54 0.72,3.22 2.99,5.06l1.35,0.36c0.95,0.23 2.28,0.21 4.02,-0.05c1.99,-0.36 3.4,-1.64 4.19,-3.86c0.38,-1.07 0.54,-2.23 0.46,-3.45c-0.05,-1.15 -0.31,-2.02 -0.69,-2.63l0,-0.03c-0.03,-0.01 -0.13,-0.16 -0.31,-0.39" class="st0"/>
   <path id="svg_486" d="m62.94262,24.60367c-0.43,-0.21 -0.87,-0.38 -1.41,-0.51c-0.56,-0.13 -1.07,-0.15 -1.61,-0.1c-0.51,0.08 -1.1,0.26 -1.74,0.59c-0.61,0.31 -0.97,0.49 -1,0.51c-0.31,0.15 -0.59,0.38 -0.89,0.66c-0.31,0.28 -0.56,0.61 -0.79,1c-0.23,0.38 -0.41,0.74 -0.54,1.1c-0.05,0.18 -0.08,0.43 -0.1,0.79c-0.03,0.31 0,0.64 0.08,0.95c0.1,0.33 0.23,0.59 0.38,0.79c0.13,0.21 0.33,0.46 0.56,0.72c0.18,0.15 0.41,0.33 0.59,0.49c0.08,0.03 0.13,0.08 0.2,0.13c0.13,0.05 0.18,0.03 0.23,-0.1c-0.28,-0.26 -0.56,-0.51 -0.74,-0.82c-0.23,-0.33 -0.38,-0.66 -0.46,-0.95c-0.1,-0.31 -0.13,-0.61 -0.13,-0.95c0.03,-0.31 0.08,-0.64 0.2,-0.97c0.08,-0.38 0.23,-0.66 0.38,-0.92c0.13,-0.15 0.26,-0.33 0.41,-0.49c0.15,-0.15 0.36,-0.33 0.54,-0.49c0.18,-0.15 0.38,-0.31 0.59,-0.41c0.03,-0.02 0.28,-0.18 0.74,-0.48c0.46,-0.28 1.18,-0.51 2.1,-0.64c0.93,-0.08 1.72,-0.08 2.41,0.1"/>
   <path id="svg_487" fill="#FFFFFF" d="m63.25262,24.93367l-0.31,-0.33c-0.69,-0.18 -1.48,-0.18 -2.4,-0.1c-0.92,0.13 -1.64,0.36 -2.1,0.64c-0.46,0.31 -0.72,0.46 -0.74,0.48c-0.2,0.1 -0.41,0.26 -0.59,0.41c-0.18,0.15 -0.39,0.33 -0.54,0.49c-0.15,0.15 -0.28,0.33 -0.41,0.49c-0.15,0.26 -0.31,0.54 -0.38,0.92c-0.13,0.33 -0.18,0.67 -0.2,0.97c0,0.33 0.03,0.64 0.13,0.95c0.08,0.28 0.23,0.61 0.46,0.95c0.18,0.31 0.46,0.56 0.74,0.82c5.04,1.15 7.54,-0.03 7.57,-3.55c0,-0.89 -0.18,-1.66 -0.51,-2.17c-0.24,-0.38 -0.46,-0.69 -0.72,-0.97" class="st0"/>
   <path id="svg_488" d="m59.80262,31.58367c-0.1,-0.03 -0.18,-0.05 -0.28,-0.08c-0.79,-0.15 -1.92,-0.23 -3.3,-0.15c0.26,0.41 0.49,0.69 0.74,0.89c0.13,0.1 0.28,0.23 0.51,0.41c0.41,0.33 0.92,0.61 1.53,0.79c0.08,0.05 0.18,0.08 0.31,0.1c0.61,0.18 1.12,0.23 1.43,0.18c0.28,-0.05 0.49,-0.08 0.59,-0.18c0.15,-0.05 0.23,-0.18 0.28,-0.36c0.1,-0.2 0,-0.46 -0.31,-0.79c-0.35,-0.37 -0.86,-0.63 -1.5,-0.81m-0.39,0.23c0.1,0.05 0.2,0.05 0.28,0.1c0.46,0.13 0.85,0.36 1.18,0.61c0.2,0.2 0.33,0.36 0.31,0.51c-0.08,0.15 -0.21,0.26 -0.44,0.28c-0.43,0.08 -0.95,0 -1.48,-0.18c-0.08,-0.02 -0.13,-0.05 -0.21,-0.08c-0.51,-0.18 -0.94,-0.41 -1.28,-0.59c-0.21,-0.15 -0.54,-0.44 -0.97,-0.9c0.44,-0.05 0.95,-0.05 1.53,0.03c0.42,0.07 0.78,0.17 1.08,0.22"/>
   <path id="svg_489" fill="#FFFFFF" d="m59.69262,31.91367c-0.08,-0.05 -0.18,-0.05 -0.28,-0.1c-0.31,-0.05 -0.67,-0.15 -1.08,-0.2c-0.59,-0.08 -1.1,-0.08 -1.53,-0.03c0.44,0.46 0.77,0.74 0.97,0.9c0.33,0.18 0.77,0.41 1.28,0.59c0.08,0.03 0.13,0.05 0.21,0.08c0.54,0.18 1.05,0.26 1.48,0.18c0.23,-0.03 0.36,-0.13 0.44,-0.28c0.02,-0.15 -0.1,-0.31 -0.31,-0.51c-0.33,-0.27 -0.71,-0.5 -1.18,-0.63" class="st0"/>
   <path id="svg_490" d="m59.69262,39.13367c-0.13,-0.43 -0.31,-0.82 -0.56,-1.15c-0.26,-0.38 -0.79,-0.84 -1.61,-1.43l-0.59,-0.2c1.23,0.87 2.02,1.64 2.33,2.28c0.28,0.64 0.38,1.23 0.28,1.84c-0.13,0.61 -0.41,1.07 -0.89,1.38c-0.46,0.33 -1.05,0.51 -1.72,0.54c-0.72,0.08 -1.61,-0.03 -2.68,-0.18l0.31,0.18c0.79,0.15 1.51,0.23 2.1,0.23c0.61,-0.02 1.13,-0.13 1.59,-0.28c0.49,-0.21 0.82,-0.44 1.1,-0.74c0.23,-0.31 0.41,-0.69 0.46,-1.15c0.06,-0.48 0.04,-0.91 -0.12,-1.32"/>
   <path id="svg_491" d="m63.66262,35.01367c0.13,-0.43 0.2,-0.87 0.2,-1.3c-0.02,-0.43 -0.23,-0.89 -0.64,-1.35l-0.46,-0.23c0.59,0.56 0.89,1.18 0.82,1.87c-0.05,0.67 -0.23,1.25 -0.59,1.79c-0.38,0.54 -0.9,0.87 -1.59,1c-0.69,0.15 -1.36,0.18 -1.94,0.1c-0.82,-0.1 -1.69,-0.28 -2.61,-0.61l0.89,0.49c0.95,0.26 1.74,0.38 2.38,0.38c0.61,-0.03 1.05,-0.03 1.25,-0.1c0.2,-0.05 0.46,-0.15 0.77,-0.28c0.31,-0.13 0.59,-0.36 0.87,-0.64c0.29,-0.3 0.5,-0.69 0.65,-1.12"/>
   <path id="svg_492" d="m68.06262,26.88367l-0.38,-0.13c1.36,1.99 1.59,3.73 0.74,5.22c-0.87,1.48 -2.74,1.56 -5.63,0.18l0.33,0.26c2.51,1.33 4.3,1.28 5.34,-0.08c1.05,-1.39 0.93,-3.23 -0.4,-5.45"/>
   <path id="svg_493" d="m14.66262,71.88367c0.36,-0.23 0.89,-0.28 1.64,-0.18c0.2,0.1 0.38,0.2 0.51,0.28c0.13,0.08 0.18,0.1 0.15,0.1l0.82,0.64c0.59,0.46 0.92,1.02 0.97,1.74c0.08,0.69 -0.28,1.3 -1.05,1.82c0.23,-0.36 0.38,-0.77 0.38,-1.2c0,-0.69 -0.31,-1.33 -0.82,-1.89c-0.2,-0.2 -0.43,-0.41 -0.72,-0.59c-0.5,-0.33 -1.11,-0.59 -1.88,-0.72"/>
   <path id="svg_494" d="m9.19262,71.58367c-0.03,-0.33 0.03,-0.69 0.13,-1.05c0.05,-0.23 0.15,-0.48 0.28,-0.74c0.38,-0.72 0.77,-1.28 1.23,-1.66c-0.05,0.13 -0.1,0.2 -0.15,0.31c-0.51,1.05 -0.79,1.87 -0.84,2.51c-0.08,0.64 0.1,1.25 0.54,1.82c0.69,0.87 2.02,1.58 3.96,2.17l2.07,0.87c0.05,0.02 0.13,0.02 0.23,0.08c-0.08,-0.03 -0.13,-0.05 -0.18,-0.05l0.23,0.1c-0.23,-0.1 -0.38,-0.13 -0.38,-0.13c-2.86,-0.79 -4.55,-1.28 -5.06,-1.51c-0.66,-0.25 -1.18,-0.59 -1.48,-1.02c-0.38,-0.5 -0.56,-1.06 -0.58,-1.7"/>
   <path id="svg_495" fill="#FFFFFF" d="m29.29262,59.40367c-0.23,-1.56 -0.84,-2.97 -1.89,-4.24c-0.28,-0.33 -0.64,-0.72 -1.13,-1.2c-6.43,-1.7 -10.85,-0.48 -13.27,3.59c-0.85,0.17 -1.79,0.48 -2.81,0.93l-0.46,0.36c-0.23,0.15 -0.44,0.31 -0.64,0.46c-1.74,1.46 -2.56,3.15 -2.51,5.17c0.05,1 0.33,1.92 0.92,2.76c0.49,0.73 1.38,1.57 2.61,2.51c-0.16,0.45 -0.26,0.85 -0.29,1.19c-0.08,0.64 0.1,1.25 0.54,1.82c0.64,0.8 1.83,1.47 3.53,2.03c0.01,0.35 -0.24,0.66 -0.82,0.93c-0.08,0.05 -0.15,0.08 -0.23,0.1c-0.46,0.2 -0.92,0.28 -1.36,0.31c-1.61,0.05 -2.97,-0.33 -4.17,-1.13c0.69,1.46 1.71,2.45 3.04,3.04l0,-0.02c1.59,0.64 3.32,0.59 5.17,-0.18c1.02,-0.46 1.76,-0.97 2.17,-1.56c0.23,-0.36 0.38,-0.77 0.38,-1.2c0,0 0,-0.01 0,-0.01c0,-0.01 0,-0.01 0,-0.01c0,-0.1 -0.01,-0.2 -0.04,-0.3c-0.03,-0.21 -0.08,-0.41 -0.16,-0.61c0,-0.01 0,-0.01 -0.01,-0.02c-0.01,-0.03 -0.03,-0.06 -0.04,-0.09c-0.13,-0.3 -0.31,-0.59 -0.57,-0.85c-0.2,-0.23 -0.43,-0.43 -0.72,-0.59c-0.16,-0.11 -0.34,-0.2 -0.52,-0.29c-0.34,-0.16 -0.73,-0.3 -1.17,-0.39c-0.03,-0.01 -0.05,-0.01 -0.07,-0.02c-0.02,-0.01 -0.06,-0.01 -0.12,-0.02c0,0 -0.01,0 -0.01,0c0.04,-0.02 0.09,-0.04 0.13,-0.06c1.09,-0.02 2.25,-0.14 3.45,-0.3c1.36,-0.2 2.61,-0.54 3.76,-0.97c0.05,0 0.13,-0.03 0.18,-0.05c1.23,-0.54 2.3,-1.18 3.22,-2c0.82,-0.74 1.66,-1.76 2.56,-3.1c1.14,-2.05 1.6,-4.04 1.35,-5.99" class="st0"/>
   <path id="svg_496" d="m24.43262,51.86367l0,-0.02l0,0.02z"/>
   <path id="svg_497" d="m11.31262,47.92367l0.03,0l-0.03,0z"/>
   <path id="svg_498" fill="#FFFFFF" d="m14.43262,39.33367c0.03,0 0.08,-0.03 0.13,-0.03c0.03,0.03 0.08,0.05 0.1,0.08c-0.08,0 -0.15,-0.05 -0.23,-0.05" class="st0"/>
   <path id="svg_499" fill="#FFFFFF" d="m28.78262,39.66367c-0.46,-0.49 -0.97,-1 -1.53,-1.48l-0.67,-0.61c-5.15,0.7 -8.69,2.29 -10.63,4.78c-0.17,-0.09 -0.34,-0.17 -0.52,-0.25l-0.89,-0.36c-0.56,-0.25 -1.1,-0.41 -1.64,-0.56c-1.23,-0.36 -2.38,-0.46 -3.43,-0.36c-1.56,0.18 -2.81,0.87 -3.76,2.07c-1.79,2.3 -2.33,4.86 -1.61,7.72c0.74,2.97 2.63,5.5 5.65,7.6l0.43,0.28c4.43,-0.32 7.52,-1.56 9.26,-3.74c1.86,0.32 4.22,0.14 7.08,-0.53c-0.15,-0.15 -0.31,-0.26 -0.43,-0.38l0.03,0c3.37,-2.1 5.22,-4.47 5.5,-7.16c0.17,-2.39 -0.77,-4.74 -2.84,-7.02" class="st0"/>
   <path id="svg_500" d="m24.43262,51.84367l0,0.02l0,-0.02z"/>
   <path id="svg_501" fill="#FFFFFF" d="m18.55262,51.53367c0.77,-0.23 1.69,-0.28 2.81,-0.15c0.95,0.1 1.87,0.43 2.76,0.95c0.67,0.38 1.38,0.92 2.15,1.64c-1.02,0.61 -2,1.05 -2.89,1.3c-1.13,0.28 -2.28,0.36 -3.48,0.2c-1.02,-0.18 -1.82,-0.56 -2.38,-1.15c-0.51,-0.56 -0.67,-1.1 -0.46,-1.69c0.26,-0.54 0.72,-0.9 1.49,-1.1" class="st0"/>
   <path id="svg_502" fill="#FFFFFF" d="m15.27262,65.75367c0.46,0.03 0.82,0.26 1.02,0.69c0.18,0.36 0.1,0.74 -0.18,1.2c-0.33,0.49 -0.84,0.92 -1.51,1.3c-0.79,0.38 -1.59,0.59 -2.35,0.64c-0.67,0.03 -1.36,-0.03 -2.12,-0.18c0.61,-1.23 1.61,-2.25 3.04,-3.1c0.9,-0.4 1.59,-0.58 2.1,-0.55" class="st0"/>
   <path id="svg_503" fill="#FFFFFF" d="m20.67262,28.84367c1.28,-0.43 2.86,-0.56 4.7,-0.31c2.05,0.28 3.99,0.92 5.81,1.97c4.6,2.56 7.24,6.6 7.85,12.09l-0.89,0.67c-1.38,-1.97 -3.02,-3.48 -4.96,-4.5c-1.89,-1.02 -3.76,-1.43 -5.65,-1.28l-0.95,0.08c0.03,0.08 0.05,0.1 0.08,0.18l0.46,0.33l0.05,0.03c-0.08,0.46 -0.18,0.87 -0.31,1.2c-0.05,0.1 -0.1,0.18 -0.15,0.28c-0.28,0.49 -0.56,0.95 -0.89,1.36c-0.41,0.54 -0.89,1 -1.43,1.36c-1.18,0.84 -2.51,1.35 -3.96,1.51c-1.1,0.1 -2.1,0 -3.02,-0.31c-0.18,-0.08 -0.38,-0.13 -0.56,-0.23c-0.26,-0.1 -0.49,-0.23 -0.72,-0.36c-0.31,-0.26 -0.54,-0.56 -0.72,-0.92l-0.36,-0.79c-1.23,-2.71 -1.3,-5.19 -0.28,-7.44c1.04,-2.26 3.01,-3.89 5.9,-4.92" class="st0"/>
   <path id="svg_504" d="m39.67262,42.83367c-0.61,-6.01 -3.3,-10.36 -8.06,-13.02c-1.89,-1.07 -3.91,-1.74 -6.06,-2.02c-1.99,-0.28 -3.68,-0.15 -5.09,0.33c-3.12,1.1 -5.24,2.89 -6.39,5.34c-1,2.15 -0.92,4.58 0.26,7.34c0.05,0.11 0.11,0.21 0.16,0.32l-0.04,-0.04c-0.54,-0.36 -1.15,-0.64 -1.84,-0.82c-0.23,-0.05 -0.46,-0.1 -0.72,-0.15c-0.82,-0.13 -1.64,-0.18 -2.43,-0.08c-1.79,0.2 -3.25,1.02 -4.35,2.4c-1.94,2.48 -2.53,5.27 -1.76,8.41c0.38,1.53 1.07,2.97 2.1,4.24c1.02,1.36 2.33,2.48 3.89,3.38c-0.28,0.18 -0.54,0.38 -0.82,0.56c-0.72,0.59 -1.33,1.28 -1.79,2.1c-0.67,1.1 -0.95,2.25 -0.92,3.4c0.05,1.15 0.38,2.22 1.02,3.14c0.49,0.69 1.41,1.41 2.76,2.1l0.46,0.13c0.15,0.02 0.28,0.05 0.38,0.08c-0.03,-0.02 -0.05,-0.04 -0.08,-0.06c0.75,0.14 1.37,0.18 1.87,0.16c0.82,-0.05 1.69,-0.28 2.53,-0.69l0.03,0c0.82,-0.46 1.38,-0.97 1.74,-1.51c0.43,-0.67 0.51,-1.23 0.23,-1.71c-0.28,-0.61 -0.77,-0.92 -1.41,-0.95c-0.56,-0.05 -1.36,0.15 -2.35,0.59l-0.03,0.03c-1.42,0.81 -2.49,2.04 -3.23,3.6c-1.04,-0.83 -1.8,-1.57 -2.24,-2.22c-0.59,-0.85 -0.87,-1.77 -0.92,-2.76c-0.05,-2.02 0.77,-3.71 2.51,-5.17c0.2,-0.15 0.41,-0.31 0.64,-0.46l0.46,-0.36l-0.43,-0.28c-3.02,-2.1 -4.91,-4.63 -5.65,-7.6c-0.72,-2.86 -0.18,-5.42 1.61,-7.72c0.95,-1.2 2.2,-1.89 3.76,-2.07c1.05,-0.1 2.2,0 3.43,0.36c0.54,0.15 1.07,0.31 1.64,0.56l0.47,0.19c0.31,0.38 0.68,0.71 1.12,0.99c-0.31,-0.26 -0.54,-0.56 -0.72,-0.92l-0.36,-0.79c-1.23,-2.71 -1.3,-5.19 -0.28,-7.44c1.05,-2.25 3.02,-3.89 5.91,-4.91c1.28,-0.43 2.86,-0.56 4.7,-0.31c2.05,0.28 3.99,0.92 5.81,1.97c4.6,2.56 7.24,6.6 7.85,12.09l-0.1,0.08c-0.79,-2.63 -1.94,-4.88 -3.48,-6.72c-1.46,-1.76 -3.14,-3.04 -5.09,-3.86c-1.76,-0.74 -3.5,-1.02 -5.29,-0.84c-1.71,0.15 -3.15,0.77 -4.32,1.76c-2.17,1.89 -3.3,3.96 -3.43,6.29c-0.1,2.28 0.79,4.6 2.76,7.01c-1.74,-0.72 -3.32,-0.97 -4.76,-0.74c-1.53,0.25 -2.89,1.02 -4.01,2.38l0.03,0c-0.77,0.82 -1.2,1.97 -1.28,3.38c-0.1,1.51 0.18,2.94 0.87,4.32c1.71,3.4 5.09,5.32 10.13,5.7c-0.59,0.38 -1.1,0.95 -1.53,1.66c-0.46,0.87 -0.72,1.82 -0.74,2.86c-0.03,1.08 0.23,2.05 0.79,2.94c0.46,0.75 1.14,1.36 2.03,1.88c-1.04,0.36 -2.16,0.65 -3.36,0.83c-1.3,0.18 -2.56,0.31 -3.73,0.31l0.47,0.09c-0.06,0 -0.12,-0.01 -0.19,-0.01c0.69,0.15 1.28,0.36 1.76,0.69c0.28,0.15 0.51,0.36 0.72,0.59c0.38,0.38 0.61,0.82 0.72,1.28c0.05,0.2 0.1,0.41 0.1,0.59c0,0.46 -0.15,0.87 -0.38,1.23c-0.41,0.59 -1.15,1.1 -2.17,1.56c-1.84,0.77 -3.58,0.82 -5.17,0.18l0,0.02c-1.33,-0.59 -2.35,-1.58 -3.04,-3.04c1.2,0.79 2.56,1.18 4.17,1.13c0.44,-0.03 0.9,-0.1 1.36,-0.31c0.08,-0.03 0.15,-0.05 0.23,-0.1c0.66,-0.31 0.92,-0.66 0.82,-1.07c-0.1,-0.23 -0.36,-0.33 -0.72,-0.33c0.13,0.15 0.18,0.33 0.15,0.59c-0.23,0.28 -0.69,0.51 -1.38,0.59c-0.18,0.02 -0.36,0.02 -0.56,0.05c-1.05,0.03 -2.12,-0.26 -3.2,-0.82c-0.74,-0.41 -1.33,-0.87 -1.76,-1.43c-0.23,-0.28 -0.44,-0.61 -0.56,-0.95c0.05,0.31 0.13,0.64 0.2,0.92c0.33,1.15 0.77,2.2 1.36,3.09c0.77,1.2 1.64,2 2.58,2.38c1.76,0.69 3.68,0.67 5.75,-0.18c1.64,-0.71 2.61,-1.58 2.97,-2.63c0.08,-0.28 0.13,-0.61 0.13,-0.92c0,-0.18 0,-0.31 -0.03,-0.46c-0.1,-0.79 -0.51,-1.41 -1.23,-1.92c-0.21,-0.13 -0.44,-0.24 -0.68,-0.34l0.32,0.06c1.82,-0.1 3.55,-0.46 5.17,-1.15c1.33,-0.54 2.48,-1.25 3.45,-2.12l0.03,0c0.85,-0.79 1.77,-1.89 2.69,-3.3l0.03,0l0,-0.03c1.25,-2.22 1.71,-4.4 1.43,-6.52c-0.18,-1.41 -0.95,-2.86 -2.22,-4.32c-0.29,-0.31 -0.58,-0.61 -0.89,-0.94c3.41,-2.23 5.25,-4.66 5.47,-7.29c0.13,-1.51 -0.15,-2.97 -0.87,-4.45c-0.48,-1.02 -1.2,-2 -2.04,-2.84c-0.42,-0.45 -0.88,-0.85 -1.37,-1.23c0.9,0.07 1.67,0.18 2.32,0.36c0.87,0.26 1.66,0.56 2.38,0.92c2.22,1.23 3.96,2.74 5.17,4.58l0.23,0.28l0.92,-0.82c0,-0.03 0,-0.03 0.03,-0.03l0.56,-0.41l-0.09,-0.21zm-26.49,23.48c0.9,-0.41 1.59,-0.59 2.1,-0.56c0.46,0.03 0.82,0.26 1.02,0.69c0.18,0.36 0.1,0.74 -0.18,1.2c-0.33,0.49 -0.84,0.92 -1.51,1.3c-0.79,0.38 -1.59,0.59 -2.35,0.64c-0.67,0.03 -1.36,-0.03 -2.12,-0.18c0.61,-1.22 1.61,-2.25 3.04,-3.09m24.96,-23.04c-1.38,-1.97 -3.02,-3.48 -4.96,-4.5c-1.89,-1.02 -3.76,-1.43 -5.65,-1.28l-0.95,0.08c0.03,0.08 0.05,0.1 0.08,0.18l0.46,0.33l-0.13,-0.13l0.09,0.08l0.17,0.16c0.56,0.49 1.07,1 1.53,1.48c2.07,2.28 3.02,4.63 2.84,7.01c-0.27,2.57 -1.99,4.86 -5.1,6.9c-0.79,-0.77 -1.48,-1.37 -2.08,-1.71c-0.97,-0.56 -1.94,-0.9 -2.99,-0.97c-1.15,-0.13 -2.17,-0.1 -2.97,0.15c-0.97,0.26 -1.59,0.74 -1.87,1.43c-0.31,0.77 -0.15,1.51 0.54,2.23c0.61,0.64 1.48,1.07 2.63,1.28c1.28,0.18 2.48,0.08 3.68,-0.25c0.88,-0.23 1.86,-0.75 3.02,-1.55c0.01,0.01 0.01,0.01 0.02,0.02c0.37,0.38 0.67,0.7 0.9,0.97c1.05,1.28 1.66,2.69 1.89,4.24c0.26,1.94 -0.2,3.94 -1.33,6.01c-0.89,1.33 -1.74,2.35 -2.56,3.1c-0.92,0.82 -1.99,1.46 -3.22,2c-0.05,0.02 -0.13,0.05 -0.18,0.05c-0.01,0.01 -0.03,0.01 -0.04,0.01c-0.96,-0.48 -1.7,-1.12 -2.19,-1.93c-0.51,-0.82 -0.77,-1.77 -0.74,-2.81c0.03,-0.97 0.26,-1.87 0.72,-2.71c0.46,-0.82 1.07,-1.41 1.82,-1.71l0.43,-0.23l-0.46,-0.03c-5.19,-0.33 -8.64,-2.22 -10.38,-5.63c-0.67,-1.38 -0.95,-2.76 -0.84,-4.19c0.08,-1.33 0.49,-2.43 1.2,-3.22c1.1,-1.28 2.38,-2.02 3.84,-2.28c1.53,-0.25 3.25,0.08 5.17,0.97l0.51,0.21l0.03,0.03l-0.38,-0.43c-2.17,-2.51 -3.2,-4.94 -3.09,-7.31c0.13,-2.22 1.23,-4.25 3.32,-6.09c1.13,-0.97 2.51,-1.53 4.17,-1.69c1.74,-0.18 3.45,0.1 5.19,0.84c1.89,0.79 3.58,2.07 4.99,3.76c1.51,1.87 2.68,4.09 3.45,6.74l-0.58,0.39zm-11.89,10.7c-1.02,0.61 -1.98,1.04 -2.87,1.29c-1.13,0.28 -2.28,0.36 -3.48,0.2c-1.02,-0.18 -1.82,-0.56 -2.38,-1.15c-0.51,-0.56 -0.67,-1.1 -0.46,-1.69c0.26,-0.54 0.72,-0.9 1.48,-1.1c0.77,-0.23 1.69,-0.28 2.81,-0.15c0.95,0.1 1.87,0.43 2.76,0.95c0.62,0.36 1.29,0.86 2,1.5c0,0 0,0 0,0l-0.03,0c0.06,0.06 0.12,0.1 0.17,0.15"/>
   <path id="svg_505" d="m65.88262,20.58367c-1.1,-2.05 -2.81,-3.38 -5.12,-3.91c-2.3,-0.56 -4.53,-0.18 -6.65,1.1c-2.15,1.28 -3.58,3.07 -4.3,5.39c-0.69,2.2 -0.56,4.27 0.38,6.24c0.08,0.1 0.13,0.2 0.21,0.33c0.21,0.36 0.41,0.74 0.59,1.12c0.15,0.33 0.31,0.64 0.46,0.97c0.66,1.66 0.89,3.27 0.74,4.88c-0.13,0.67 -0.31,1.3 -0.51,1.94c-0.08,0.13 -0.1,0.28 -0.18,0.43c-0.55,1.22 -0.95,2.62 -1.2,4.14c-0.43,-0.09 -0.85,-0.21 -1.26,-0.38l-0.36,-0.15c-0.38,-0.23 -0.89,-0.54 -1.48,-0.9c-1.12,-0.72 -2.17,-1.2 -3.2,-1.41c-1.89,-0.43 -3.63,-0.31 -5.22,0.38c-1.89,0.79 -3.14,2.22 -3.73,4.27c-0.69,2.25 -0.64,4.3 0.08,6.16c0.32,0.76 0.75,1.5 1.28,2.21c-0.69,0.72 -1.02,1.56 -1.02,2.54c0,0.2 0.03,0.44 0.08,0.61l0,0.05l0,0.1c0.11,0.52 0.17,1 0.19,1.45c-0.46,0.05 -0.94,0.14 -1.44,0.3c-0.04,0.01 -0.07,0.03 -0.11,0.05c-0.42,0.31 -0.65,0.69 -0.67,1.13c-0.03,0.58 0.31,1.24 1.02,1.99c-0.18,0.35 -0.25,0.73 -0.2,1.13c0.06,0.52 0.3,0.99 0.68,1.44c-0.77,2.61 -1.17,5.32 -1.2,8.1c-0.77,0.19 -1.46,0.57 -2.1,1.17c-0.98,0.92 -1.47,2.19 -1.47,3.76c0.03,1.49 0.32,2.55 0.92,3.27c0.61,0.68 2.03,1.02 4.47,1.07c0.28,0 0.55,0 0.8,0c1.89,0 3.2,-0.09 4.02,-0.27c0.52,-0.12 0.88,-0.37 1.06,-0.73c0.19,-0.39 0.16,-0.89 -0.08,-1.48c0.85,-0.03 1.58,-0.08 2.16,-0.17c0.09,1.24 0.39,2.14 0.91,2.73c0.65,0.74 2.14,1.1 4.68,1.13c0.35,0 0.69,0.01 1.01,0.01c2.03,0 3.23,-0.08 4.04,-0.27c0.57,-0.14 0.96,-0.4 1.14,-0.8c0.21,-0.44 0.15,-1.01 -0.16,-1.68c-0.01,-0.03 -0.02,-0.05 -0.04,-0.08c0.16,0 0.33,0.01 0.5,0.01l0,0c2,-0.03 3.52,-0.09 4.41,-0.34c0.47,-0.13 0.78,-0.36 0.93,-0.71c0.19,-0.41 0.12,-0.93 -0.21,-1.59c-0.45,-0.92 -0.88,-1.77 -1.26,-2.54l-0.11,-0.21c-0.44,-0.81 -0.97,-1.6 -1.57,-2.35c-0.64,-0.81 -1.63,-1.25 -2.92,-1.3c-0.41,-0.04 -0.8,-0.01 -1.17,0.07c-0.16,-1.44 0.33,-9.09 0.79,-12.69c0.19,-0.09 0.39,-0.17 0.57,-0.27c3.25,-1.46 5.42,-4.05 6.48,-7.82c0.39,-1.28 0.62,-2.43 0.72,-3.48l0.03,-0.13c0.1,-1 0.15,-1.69 0.15,-2.1c0,-0.41 0.21,-2.05 0.62,-4.89c0.41,-2.92 1.38,-6.65 2.91,-11.3c0.05,-0.08 0.08,-0.13 0.08,-0.2c0.33,-0.87 0.59,-1.76 0.69,-2.69c0.08,-0.18 0.08,-0.36 0.1,-0.54c0.14,-1.45 -0.19,-2.88 -0.96,-4.29m-18.67,52.57l-0.09,0.07c-0.74,0.21 -1.42,0.59 -2.04,1.16c-0.36,0.34 -0.66,0.71 -0.9,1.12c-0.2,-0.38 -0.39,-0.73 -0.58,-1.06l-0.14,-0.25c-0.41,-0.81 -0.93,-1.57 -1.55,-2.24c-0.62,-0.79 -1.7,-1.26 -3.1,-1.34c-0.15,-0.01 -0.3,-0.01 -0.44,-0.01c0.31,-0.79 1.38,-3.43 2.72,-6.23c0.68,-0.08 1.26,-0.36 1.69,-0.84c0.06,-0.07 0.13,-0.17 0.2,-0.26c0.16,-0.13 0.3,-0.29 0.41,-0.51c0.1,-0.21 0.17,-0.4 0.24,-0.6c0.19,-0.38 0.38,-0.81 0.58,-1.32l0,-0.03c0.28,-0.7 0.55,-1.32 0.81,-1.89c0.59,0.12 1.28,0.23 2.09,0.32c0.12,1.87 0.48,9.08 0.1,13.91"/>
   <path id="svg_506" fill="#FFFFFF" d="m60.46262,77.54367c-0.49,-1 -0.95,-1.92 -1.36,-2.74c-0.26,-0.47 -0.56,-0.94 -0.87,-1.39c-1.57,-4.93 -2.31,-10.81 -2.19,-17.63c-1.2,-0.74 -2.4,-0.84 -3.63,-0.36c-1.89,6.23 -2.41,12.59 -1.51,19.09c-0.08,0.44 -0.11,0.91 -0.07,1.42c0.13,1.38 0.41,2.35 0.92,2.92c0.54,0.56 1.82,0.85 3.89,0.85c2.07,-0.03 3.5,-0.1 4.32,-0.33c0.83,-0.25 0.99,-0.86 0.5,-1.83" class="st0"/>
   <path id="svg_507" fill="#FFFFFF" d="m41.77262,43.27367c-0.67,0.28 -1.28,0.87 -1.89,1.69c-0.26,0.36 -0.51,0.84 -0.69,1.33c-0.13,0.33 -0.28,0.84 -0.46,1.46c-0.2,0.77 -0.33,1.58 -0.38,2.45c-0.05,1.15 0.13,2.45 0.54,3.89c0.41,1.43 0.69,2.46 0.92,3.09c0.12,0.43 0.17,0.96 0.14,1.57c-0.05,0.14 -0.11,0.27 -0.19,0.37c-0.13,0.18 -0.28,0.31 -0.51,0.44l0,-0.05c-0.12,0.09 -0.25,0.16 -0.39,0.21l-1.35,-0.77c-2.5,4.74 -3.62,9.85 -3.33,15.31c-0.05,0.29 -0.08,0.6 -0.07,0.93c0,1.3 0.28,2.2 0.82,2.76c0.54,0.51 1.92,0.82 4.17,0.84c2.25,0.05 3.81,-0.05 4.73,-0.23c0.9,-0.2 1.13,-0.74 0.67,-1.69c-0.36,-0.75 -0.73,-1.41 -1.07,-2.03c-1.39,-4.2 -1.43,-8.4 -0.16,-12.6l-0.33,-0.19c0.19,-0.38 0.39,-0.82 0.61,-1.35c0.03,-0.03 0.03,-0.05 0.03,-0.05c0.35,-0.93 0.71,-1.75 1.06,-2.46c0.53,-0.77 1.05,-1.7 1.57,-2.78c0.79,-1.35 1.2,-2.71 1.23,-4.12l0,-0.36l-5.67,-7.66z" class="st0"/>
   <path id="svg_508" fill="#FFFFFF" d="m65.22262,20.97367l-0.02,0c-0.97,-1.84 -2.56,-3.04 -4.65,-3.53c-2.1,-0.51 -4.12,-0.18 -6.09,0.97c-1.94,1.15 -3.25,2.81 -3.91,4.93c-0.64,2.12 -0.49,4.12 0.54,5.98c0.05,0.1 0.1,0.21 0.15,0.28l0.33,0.49l-0.03,0l0.2,0.49c1.13,2.33 1.53,4.45 1.28,6.32c-0.05,0.23 -0.13,0.49 -0.18,0.72c-0.15,0.54 -0.36,1.1 -0.59,1.66c-0.61,1.33 -1.16,2.92 -1.66,4.78c-0.3,-0.04 -0.6,-0.1 -0.89,-0.18c-0.31,-0.08 -0.61,-0.18 -0.92,-0.31l-0.2,-0.08l-0.03,0c-0.03,-0.02 -0.08,-0.05 -0.13,-0.08c-0.43,-0.23 -0.97,-0.56 -1.64,-0.95c-1.02,-0.67 -1.99,-1.1 -2.94,-1.33c-1.71,-0.38 -3.3,-0.28 -4.76,0.36c-0.45,0.19 -0.86,0.42 -1.23,0.69c-0.53,0.34 -1.01,0.87 -1.48,1.61c-0.25,0.43 -0.51,0.92 -0.71,1.48c-0.13,0.38 -0.28,0.92 -0.44,1.64c-0.23,0.82 -0.36,1.71 -0.38,2.68c-0.05,1.3 0.13,2.71 0.54,4.3c0.38,1.56 0.69,2.71 0.89,3.43c0.11,0.36 0.16,0.77 0.17,1.23c-0.66,-0.03 -1.36,0.07 -2.09,0.31c-0.25,0.18 -0.4,0.39 -0.47,0.63c-2.45,5.19 -3.52,10.83 -3.24,16.83c-0.05,0.3 -0.07,0.62 -0.07,0.95c0.03,1.43 0.31,2.4 0.82,3.02c0.54,0.59 1.94,0.9 4.19,0.95c2.23,0.03 3.81,-0.05 4.73,-0.25c0.9,-0.21 1.12,-0.82 0.67,-1.84c-0.38,-0.83 -0.73,-1.57 -1.07,-2.26c-1.39,-4.66 -1.46,-9.29 -0.19,-13.95l-0.01,0c0.18,-0.55 0.26,-1.05 0.22,-1.52c0.02,-0.06 0.04,-0.12 0.07,-0.19c0.03,0 0.03,-0.05 0.03,-0.05c0.38,-1.03 0.74,-1.98 1.1,-2.78c0.28,-0.45 0.55,-0.96 0.83,-1.5c0.71,0.42 1.33,0.75 1.85,0.96c0.72,0.31 1.51,0.51 2.33,0.61c0.09,0.02 0.18,0.02 0.27,0.03c-2.03,5.93 -2.83,12.02 -2.33,18.26c-0.13,0.48 -0.2,1 -0.2,1.56c0.03,1.48 0.31,2.53 0.84,3.15c0.56,0.64 2.02,0.97 4.4,1c2.35,0.03 3.99,-0.03 4.96,-0.26c0.97,-0.23 1.23,-0.87 0.72,-1.94c-0.49,-1.1 -0.92,-2.05 -1.38,-2.94c-0.25,-0.53 -0.54,-1.05 -0.88,-1.57c-1.44,-4.74 -1.76,-10.64 -1.34,-17.22c1,-0.15 1.95,-0.42 2.86,-0.81l0.2,-0.07c3.35,-1.33 5.52,-3.86 6.6,-7.54c0.28,-0.97 0.49,-1.97 0.59,-3.02c0,0 0.03,-0.13 0.05,-0.38c0.05,-0.25 0.08,-0.74 0.15,-1.51c0.05,-0.74 0.28,-2.43 0.61,-5.06c0.36,-2.64 1.1,-5.81 2.2,-9.44c0.26,-0.82 0.51,-1.64 0.82,-2.48c0.03,-0.05 0.03,-0.15 0.05,-0.2c0.31,-1 0.56,-2.02 0.77,-3.02c0.12,-1.43 -0.19,-2.76 -0.88,-4.04" class="st0"/>
   <path id="svg_509" d="m43.43262,75.27367c-0.15,0 -0.29,-0.1 -0.34,-0.25c-1.42,-4.26 -1.48,-8.59 -0.18,-12.88c0.06,-0.19 0.26,-0.3 0.45,-0.24c0.19,0.06 0.3,0.26 0.24,0.45c-1.25,4.14 -1.2,8.32 0.18,12.44c0.06,0.19 -0.04,0.4 -0.23,0.46c-0.04,0.01 -0.08,0.02 -0.12,0.02"/>
   <path id="svg_510" d="m37.96262,44.55367c0.03,-0.36 0.1,-0.74 0.23,-1.18c0.21,-0.51 0.38,-0.95 0.61,-1.28c0.18,-0.31 0.38,-0.46 0.56,-0.46c0.13,0.13 0.2,0.38 0.2,0.77c-0.02,0.46 -0.1,0.95 -0.26,1.41c-0.15,0.54 -0.36,0.95 -0.51,1.2c-0.23,0.38 -0.38,0.56 -0.51,0.49c-0.05,0.23 -0.05,0.43 -0.03,0.64c-0.08,0.02 -0.13,0.02 -0.21,0.05c-0.13,0.05 -0.26,0.1 -0.38,0.13c0.1,-0.33 0.26,-0.64 0.36,-0.97c-0.06,-0.16 -0.09,-0.44 -0.06,-0.8"/>
   <path id="svg_511" d="m36.25262,45.72367c0.18,-0.03 0.33,0.1 0.43,0.36c0.13,0.33 0.18,0.77 0.18,1.25c0,0.38 -0.08,0.79 -0.15,1.23c-0.08,0.38 -0.2,0.67 -0.36,0.84c0.08,0.21 0.15,0.46 0.26,0.72c-0.08,0.03 -0.15,0.05 -0.23,0.13c-0.13,0.03 -0.25,0.08 -0.38,0.18c0,-0.31 0.05,-0.64 0.08,-0.95c-0.1,-0.08 -0.23,-0.26 -0.33,-0.51c-0.1,-0.31 -0.15,-0.64 -0.18,-1.05c0,-0.49 0.08,-0.95 0.18,-1.38c0.14,-0.43 0.32,-0.69 0.5,-0.82"/>
   <path id="svg_512" d="m38.80262,46.57367c0.23,-0.26 0.41,-0.33 0.56,-0.23c0.13,0.1 0.2,0.38 0.2,0.85c-0.02,0.43 -0.1,0.84 -0.26,1.33c-0.1,0.41 -0.26,0.77 -0.41,1.1c-0.18,0.23 -0.36,0.33 -0.49,0.33c-0.03,0.36 0,0.74 0.03,1.1c-0.13,-0.15 -0.23,-0.28 -0.33,-0.36c-0.08,-0.13 -0.15,-0.2 -0.21,-0.28c0.1,-0.26 0.15,-0.48 0.28,-0.69c-0.13,-0.23 -0.15,-0.51 -0.15,-0.87c0.03,-0.38 0.1,-0.74 0.23,-1.13c0.14,-0.49 0.32,-0.87 0.55,-1.15"/>
   <path id="svg_513" d="m38.01262,47.16367l0,0c-0.02,0 -0.03,-0.02 -0.03,-0.03c0.01,-0.13 0.02,-0.28 0.03,-0.47c0,-0.14 0.01,-0.3 0.02,-0.48c0.05,0.18 0.05,0.34 0.04,0.48c-0.01,0.18 -0.01,0.34 -0.03,0.47c0,0.02 -0.02,0.03 -0.03,0.03"/>
   <path id="svg_514" d="m36.50262,51.10367c-0.02,0 -0.03,-0.01 -0.03,-0.03c-0.03,-0.28 -0.08,-0.56 -0.13,-0.82c0.11,0.24 0.17,0.53 0.19,0.81c0,0.02 -0.01,0.04 -0.03,0.04l0,0z"/>
   <path id="svg_515" d="m37.78262,51.41367l0,0c-0.02,0 -0.03,-0.02 -0.03,-0.04c0.05,-0.36 0.16,-0.58 0.35,-0.71c-0.13,0.17 -0.23,0.38 -0.28,0.72c-0.01,0.02 -0.03,0.03 -0.04,0.03"/>
   <path id="svg_516" d="m37.33262,50.82367c-0.08,0 -0.19,-0.12 -0.22,-0.23c-0.18,-0.53 -0.04,-1.19 0.44,-2.07c0.24,-0.43 0.38,-0.89 0.43,-1.39c0.01,0.52 -0.13,0.99 -0.37,1.43c-0.47,0.86 -0.6,1.5 -0.43,2.02c0.02,0.1 0.12,0.18 0.15,0.18c0.08,-0.02 0.12,-0.11 0.17,-0.26c0.02,-0.22 0.02,-0.39 0,-0.49c-0.04,-0.07 -0.06,-0.08 -0.07,-0.08c-0.03,0 -0.09,0.09 -0.11,0.11c-0.01,0.02 -0.03,0.02 -0.04,0.01c-0.02,-0.01 -0.02,-0.03 -0.01,-0.05c0.06,-0.09 0.1,-0.14 0.16,-0.14c0.06,0 0.09,0.06 0.12,0.12c0.03,0.11 0.03,0.29 0,0.53c-0.05,0.17 -0.11,0.28 -0.22,0.31l0,0z"/>
   <path id="svg_517" d="m36.41262,55.70367c-0.2,-0.03 -0.3,-0.33 -0.36,-0.94c-0.05,-0.68 0.07,-1.33 0.21,-1.93c0.17,-0.57 0.23,-1.13 0.2,-1.76c0.09,0.63 0.03,1.2 -0.14,1.77c-0.14,0.6 -0.26,1.24 -0.2,1.91c0.06,0.71 0.19,0.88 0.28,0.89c0.03,-0.03 0.21,-0.16 0.24,-0.51c0.08,-0.36 0.08,-0.69 0,-1.01c0,-0.02 0.01,-0.03 0.02,-0.04c0.02,0 0.03,0.01 0.04,0.03c0.08,0.34 0.08,0.67 0,1.04c-0.01,0.24 -0.12,0.45 -0.29,0.55"/>
   <path id="svg_518" d="m37.38262,54.53367c-0.08,0 -0.16,-0.07 -0.24,-0.2c-0.15,-0.25 -0.21,-0.6 -0.18,-1.07c0.03,-0.45 0.18,-0.74 0.41,-0.77c0.02,0 0.03,0.01 0.04,0.03c0,0.02 -0.01,0.03 -0.03,0.04c-0.2,0.03 -0.33,0.29 -0.36,0.71c-0.03,0.45 0.03,0.79 0.17,1.03c0.05,0.08 0.12,0.18 0.2,0.17c0.05,-0.01 0.15,-0.08 0.25,-0.47c0.07,-0.48 0.1,-0.99 0.07,-1.53c-0.06,-0.56 -0.02,-0.91 0.03,-1.11c0.02,0.2 -0.02,0.55 0.04,1.1c0.03,0.54 0,1.06 -0.08,1.54c-0.08,0.33 -0.18,0.5 -0.3,0.52c0,0.01 -0.01,0.01 -0.02,0.01"/>
   <path id="svg_519" d="m48.26262,51.71367c0.51,-0.1 1.02,-0.26 1.53,-0.49c0.61,-0.28 1.07,-0.67 1.41,-1.18l0,-0.03c0.05,0.03 0.13,0.05 0.18,0.05c0.05,0.05 0.08,0.05 0.1,0.08l0,0.15c-0.13,0.28 -0.33,0.56 -0.61,0.84c-0.25,0.31 -0.59,0.54 -1.02,0.67c-0.38,0.15 -0.82,0.26 -1.35,0.26c0.33,0.28 0.84,0.49 1.48,0.67c0.87,0.2 1.76,0.03 2.63,-0.59c0.54,-0.38 0.89,-0.92 1.05,-1.61c0.1,-0.41 0.1,-0.79 0,-1.15c-0.25,-0.67 -0.64,-1.1 -1.25,-1.23c-0.44,-0.08 -0.95,-0.15 -1.41,-0.18l-0.44,0l-0.1,-0.03c0.03,-0.03 0.08,-0.05 0.1,-0.08c0.54,-0.26 1.1,-0.31 1.66,-0.26c0.56,0.08 0.92,0.15 1.12,0.31c0.18,0.15 0.31,0.26 0.41,0.36c0.08,0.08 0.13,0.18 0.18,0.23c0.38,0.64 0.46,1.41 0.26,2.28c-0.18,0.89 -0.64,1.53 -1.33,2.02c-0.87,0.61 -1.87,0.79 -2.94,0.51c-0.49,-0.08 -1,-0.33 -1.61,-0.82c-0.31,-0.2 -0.59,-0.51 -0.87,-0.82l0.82,0.04z"/>
   <path id="svg_520" d="m51.49262,50.28367l0,-0.1c0,0.03 0.03,0.05 0,0.08l0,0.02z"/>
   <path id="svg_521" d="m45.76262,44.55367c-0.08,0.26 -0.13,0.59 -0.13,1c-0.03,0.38 0.03,0.89 0.13,1.51c0.44,1.38 1.02,2.25 1.89,2.66c0.82,0.36 2.15,0.46 3.96,0.28c0.03,0.31 -0.2,0.49 -0.66,0.54c-0.49,0.08 -1,0.13 -1.56,0.15c-0.56,0 -1.02,-0.05 -1.46,-0.18c-0.44,-0.15 -0.77,-0.36 -1.07,-0.64c-0.28,-0.33 -0.54,-0.61 -0.74,-0.87c-0.23,-0.26 -0.41,-0.59 -0.56,-1c-0.1,-0.31 -0.23,-0.66 -0.33,-1.05c-0.26,-1.64 -0.1,-2.84 0.49,-3.6c0.56,-0.79 1.41,-1.31 2.45,-1.59l-1.12,0.89c-0.51,0.46 -0.84,0.95 -1.07,1.38c-0.04,0.11 -0.12,0.26 -0.22,0.52"/>
   <path id="svg_522" fill="#FFFFFF" d="m53.66262,49.38367c-0.26,-0.67 -0.64,-1.1 -1.25,-1.23c-0.44,-0.08 -0.95,-0.15 -1.41,-0.18l-0.44,0l-0.1,-0.03c-0.02,0.01 -0.03,0.01 -0.04,0.02c-0.19,-0.41 -0.15,-1 0.09,-1.81c0.36,-2.56 -0.43,-4.04 -2.35,-4.4l-1.12,0.89c-0.51,0.46 -0.84,0.95 -1.08,1.38c-0.03,0.1 -0.1,0.25 -0.2,0.51c-0.08,0.26 -0.13,0.59 -0.13,1c-0.03,0.38 0.03,0.89 0.13,1.51c0.44,1.38 1.02,2.25 1.89,2.66c0.75,0.33 1.92,0.44 3.5,0.32c0.02,0 0.03,0.01 0.05,0.01l0,-0.02c0.01,0 0.01,0 0.02,0c0.05,0.02 0.11,0.04 0.16,0.04c0.05,0.05 0.08,0.05 0.1,0.08l0,0.02c0,0.03 0.03,0.05 0,0.08l0,0.03l0,0.02c-0.13,0.28 -0.33,0.56 -0.61,0.84c-0.26,0.31 -0.59,0.54 -1.02,0.67c-0.38,0.15 -0.82,0.26 -1.35,0.26c0.33,0.28 0.84,0.49 1.48,0.67c0.87,0.2 1.76,0.03 2.63,-0.59c0.54,-0.38 0.89,-0.92 1.05,-1.61c0.1,-0.4 0.1,-0.78 0,-1.14" class="st0"/>
   <path id="svg_523" d="m54.40262,37.00367c0.59,1 0.95,2.15 1.13,3.4c0.08,0.66 0.1,1.36 0.02,2.02c-0.1,0.69 -0.23,1.28 -0.49,1.84c-0.54,1.33 -1.38,2.35 -2.43,3.04c-0.54,0.36 -1.12,0.59 -1.79,0.77l-0.36,-0.05c0.08,-0.05 0.1,-0.1 0.13,-0.13c0.69,-0.28 1.1,-0.51 1.28,-0.64c0.08,-0.03 0.2,-0.13 0.49,-0.33c0.1,-0.08 0.18,-0.13 0.28,-0.21c0.97,-0.74 1.66,-1.69 2.1,-2.84c0.33,-1.05 0.44,-2.15 0.28,-3.32l0,-0.03c-0.13,-1.13 -0.49,-2.15 -1.02,-3.07c-0.26,-0.44 -0.49,-0.77 -0.77,-1.08c-0.33,-0.36 -0.87,-0.84 -1.56,-1.46c0.15,-0.03 0.28,-0.03 0.43,-0.03c0.61,0.41 1.1,0.79 1.41,1.07c0.36,0.36 0.64,0.67 0.87,1.05"/>
   <path id="svg_524" fill="#FFFFFF" d="m51.69262,34.93367c0.69,0.61 1.23,1.1 1.56,1.46c0.28,0.31 0.51,0.64 0.77,1.08c0.54,0.92 0.89,1.94 1.02,3.07l0,0.03c0.15,1.18 0.05,2.28 -0.28,3.32c-0.44,1.15 -1.12,2.1 -2.1,2.84c-0.1,0.08 -0.18,0.13 -0.28,0.21c-0.28,0.2 -0.41,0.31 -0.49,0.33c-0.18,0.13 -0.59,0.36 -1.28,0.64c-0.03,0.02 -0.05,0.08 -0.13,0.13c-1.36,0.64 -2.3,-1.33 -2.74,-5.96c-0.45,-4.69 0.88,-7.07 3.95,-7.15" class="st0"/>
   <path id="svg_525" d="m48.65262,43.09367c0.13,-0.46 0.31,-0.84 0.56,-1.23c0.23,-0.38 0.69,-0.82 1.33,-1.36l0.43,-0.15c-1,0.82 -1.66,1.53 -1.94,2.22c-0.31,0.66 -0.46,1.33 -0.46,2.02c0,0.72 0.15,1.25 0.44,1.66c0.31,0.43 0.69,0.72 1.17,0.84c0.49,0.15 1.15,0.21 1.94,0.15l-0.28,0.18c-0.59,0.05 -1.07,0.03 -1.51,-0.08c-0.41,-0.1 -0.79,-0.26 -1.1,-0.51c-0.31,-0.25 -0.54,-0.59 -0.66,-0.95c-0.15,-0.38 -0.18,-0.84 -0.18,-1.38c0,-0.49 0.08,-0.98 0.26,-1.41"/>
   <path id="svg_526" d="m43.35262,29.23367l-0.03,0c-0.15,0.25 -0.26,0.38 -0.26,0.43c-0.38,0.64 -0.67,1.59 -0.84,2.84c-0.23,1.38 -0.26,2.69 -0.13,3.94c0.26,2.58 1.07,4.19 2.45,4.86c1.2,0.54 2.15,0.72 2.84,0.61l1.02,-0.21l-0.67,0.36c-0.51,0.23 -1,0.33 -1.43,0.38c-0.72,0.05 -1.33,-0.13 -1.92,-0.46c-1.59,-0.74 -2.53,-2.53 -2.81,-5.42c-0.15,-1.33 -0.1,-2.74 0.13,-4.19l0,-0.02c0.21,-1.41 0.56,-2.43 0.95,-3.15c0.23,-0.33 0.38,-0.56 0.51,-0.77l0.03,0c0.46,-0.54 1.02,-0.92 1.76,-1.07c0.41,-0.1 0.77,-0.1 1.15,-0.05c0.33,0.05 0.69,0.2 1.13,0.38l0.15,0.1l0.1,0c0,0.03 -0.03,0.03 -0.03,0c-1.02,0.03 -1.82,0.13 -2.43,0.26c-0.61,0.15 -1.12,0.46 -1.51,0.92l0,-0.03c-0.05,0.11 -0.11,0.21 -0.16,0.29"/>
   <path id="svg_527" fill="#FFFFFF" d="m43.33262,29.23367l0.03,0c0.05,-0.08 0.1,-0.18 0.18,-0.28l0,0.03c0.38,-0.46 0.89,-0.77 1.51,-0.92c0.61,-0.13 1.41,-0.23 2.43,-0.26l1.41,0.49c0.87,1.02 1.46,1.94 1.74,2.74c0.31,0.84 0.46,1.48 0.54,1.99c0.08,0.49 0.08,1.64 0.1,3.45c0,1.71 -0.95,3.48 -2.84,5.24l-1.02,0.21c-0.69,0.1 -1.64,-0.08 -2.84,-0.61c-1.38,-0.66 -2.2,-2.28 -2.45,-4.86c-0.13,-1.25 -0.1,-2.56 0.13,-3.94c0.18,-1.25 0.46,-2.2 0.84,-2.84c-0.02,-0.06 0.08,-0.19 0.24,-0.44" class="st0"/>
   <path id="svg_528" d="m48.29262,26.44367c0.33,-0.18 0.67,-0.31 1.07,-0.38c0.41,-0.08 0.79,-0.05 1.15,0.1c0.36,0.15 0.74,0.44 1.18,0.87c0.41,0.46 0.61,0.69 0.64,0.74c0.2,0.23 0.38,0.51 0.54,0.87c0.18,0.33 0.31,0.77 0.44,1.2c0.1,0.49 0.2,0.89 0.23,1.3l0,0.87c-0.05,0.38 -0.13,0.77 -0.23,1.07c-0.08,0.33 -0.21,0.61 -0.33,0.84c-0.13,0.23 -0.33,0.46 -0.51,0.72c-0.18,0.18 -0.33,0.31 -0.49,0.46c-0.05,0.03 -0.1,0.08 -0.15,0.08c-0.1,0.05 -0.15,0 -0.18,-0.1c0.26,-0.26 0.46,-0.51 0.64,-0.82c0.23,-0.33 0.36,-0.66 0.49,-0.97c0.1,-0.36 0.15,-0.69 0.18,-1.05c0.05,-0.36 0.05,-0.74 0.02,-1.15c-0.05,-0.38 -0.1,-0.74 -0.18,-1.02c-0.05,-0.23 -0.15,-0.44 -0.2,-0.61c-0.1,-0.23 -0.23,-0.43 -0.33,-0.64c-0.1,-0.18 -0.26,-0.38 -0.36,-0.54c-0.03,-0.02 -0.18,-0.23 -0.46,-0.61c-0.31,-0.41 -0.77,-0.77 -1.41,-1.02c-0.68,-0.26 -1.24,-0.31 -1.75,-0.21"/>
   <path id="svg_529" fill="#FFFFFF" d="m48.01262,26.75367l0.28,-0.31c0.51,-0.1 1.07,-0.05 1.74,0.2c0.64,0.26 1.1,0.61 1.41,1.02c0.28,0.38 0.43,0.59 0.46,0.61c0.1,0.15 0.26,0.36 0.36,0.54c0.1,0.21 0.23,0.41 0.33,0.64c0.05,0.18 0.15,0.38 0.2,0.61c0.08,0.28 0.13,0.64 0.18,1.02c0.03,0.41 0.03,0.79 -0.02,1.15c-0.03,0.36 -0.08,0.69 -0.18,1.05c-0.13,0.31 -0.26,0.64 -0.49,0.97c-0.18,0.31 -0.38,0.56 -0.64,0.82c-3.73,0.59 -5.37,-1.07 -4.91,-5.01c0.1,-1.02 0.33,-1.79 0.67,-2.35c0.2,-0.35 0.4,-0.68 0.61,-0.96" class="st0"/>
   <path id="svg_530" d="m49.57262,34.65367c0.08,0 0.15,-0.03 0.23,-0.05c0.59,-0.05 1.41,0.03 2.35,0.26c-0.2,0.43 -0.44,0.74 -0.64,0.89c-0.08,0.1 -0.23,0.23 -0.41,0.41c-0.36,0.31 -0.74,0.54 -1.18,0.69c-0.1,0.03 -0.18,0.03 -0.26,0.05c-0.49,0.13 -0.84,0.1 -1.05,0c-0.2,-0.08 -0.33,-0.15 -0.41,-0.26c-0.08,-0.1 -0.15,-0.26 -0.18,-0.44c-0.03,-0.26 0.1,-0.51 0.36,-0.84c0.32,-0.4 0.7,-0.63 1.19,-0.71m0.25,0.31c-0.08,0.03 -0.13,0.03 -0.23,0.08c-0.31,0.08 -0.64,0.28 -0.92,0.54c-0.15,0.15 -0.26,0.36 -0.26,0.54c0,0.15 0.1,0.28 0.26,0.36c0.28,0.13 0.67,0.13 1.1,0c0.03,-0.03 0.1,-0.05 0.15,-0.08c0.38,-0.15 0.72,-0.31 0.97,-0.48c0.18,-0.13 0.44,-0.41 0.82,-0.84c-0.31,-0.13 -0.66,-0.18 -1.1,-0.15c-0.27,-0.02 -0.56,0 -0.79,0.03"/>
   <path id="svg_531" fill="#FFFFFF" d="m49.59262,35.03367c0.1,-0.05 0.15,-0.05 0.23,-0.08c0.23,-0.02 0.51,-0.05 0.79,-0.05c0.43,-0.03 0.79,0.03 1.1,0.15c-0.38,0.43 -0.64,0.72 -0.82,0.84c-0.26,0.18 -0.59,0.33 -0.97,0.48c-0.05,0.03 -0.13,0.05 -0.15,0.08c-0.44,0.13 -0.82,0.13 -1.1,0c-0.15,-0.08 -0.26,-0.2 -0.26,-0.36c0,-0.18 0.1,-0.38 0.26,-0.54c0.28,-0.24 0.62,-0.44 0.92,-0.52" class="st0"/>
   <path id="svg_532" d="m46.37262,37.97367c-0.03,-0.54 -0.03,-1.02 0.03,-1.51c0.08,-0.49 0.31,-0.97 0.64,-1.41l0.38,-0.23c-0.51,0.54 -0.79,1.23 -0.84,1.97c-0.08,0.74 0,1.46 0.18,2.1c0.2,0.64 0.51,1.1 1,1.33c0.49,0.26 0.92,0.38 1.38,0.38c0.56,0 1.23,-0.08 1.94,-0.31l-0.72,0.41c-0.69,0.15 -1.28,0.21 -1.71,0.1c-0.46,-0.13 -0.74,-0.2 -0.9,-0.28c-0.15,-0.1 -0.36,-0.23 -0.54,-0.44c-0.18,-0.18 -0.36,-0.46 -0.51,-0.82c-0.18,-0.34 -0.25,-0.77 -0.33,-1.29"/>
   <path id="svg_533" d="m44.33262,28.26367l0.28,-0.08c-1.2,2.05 -1.61,3.94 -1.2,5.73c0.41,1.79 1.74,2.1 3.99,0.97l-0.28,0.26c-1.97,1.13 -3.22,0.84 -3.81,-0.84c-0.57,-1.7 -0.24,-3.72 1.02,-6.04"/>
   <path id="svg_534" d="m45.22262,10.33367c0.44,-0.92 0.95,-1.64 1.51,-2.1c0.49,-0.43 0.87,-0.61 1.2,-0.64l0.02,0c0.31,-0.05 0.62,0.08 0.97,0.46c0.36,0.38 0.72,0.97 1.05,1.79c0.26,0.69 0.48,1.61 0.59,2.68c0.13,1.23 0.05,2.15 -0.23,2.74l-0.03,-0.03l-0.38,-2.12c-0.28,-1.51 -0.48,-2.51 -0.66,-2.99c-0.2,-0.54 -0.44,-1.02 -0.69,-1.36c-0.21,-0.26 -0.38,-0.38 -0.54,-0.43c-0.74,0.18 -1.46,0.95 -2.12,2.35c-0.51,1.02 -0.87,2.04 -1.13,2.99c-0.23,1.02 -0.36,2.12 -0.36,3.22l0,0.02c0,1.07 0.26,2.33 0.79,3.73c0.61,1.61 1.41,2.63 2.38,3.09l-0.18,0.05c-0.97,-0.23 -1.87,-1.13 -2.63,-2.63c-0.74,-1.51 -1.13,-2.94 -1.13,-4.25c0,-1.2 0.13,-2.3 0.38,-3.37c0.27,-1 0.65,-2.08 1.19,-3.2"/>
   <path id="svg_535" fill="#FFFFFF" d="m48.57262,8.77367c0.25,0.33 0.49,0.82 0.69,1.36c0.18,0.49 0.38,1.48 0.66,2.99l0.38,2.12c0,0.03 0,0.05 -0.03,0.08c-0.77,3.25 -1.66,6.06 -2.68,8.44c-0.97,-0.46 -1.76,-1.48 -2.38,-3.09c-0.54,-1.41 -0.79,-2.66 -0.79,-3.73l0,-0.03c0,-1.1 0.13,-2.2 0.36,-3.22c0.26,-0.95 0.61,-1.97 1.13,-2.99c0.66,-1.41 1.38,-2.17 2.12,-2.35c0.16,0.04 0.34,0.16 0.54,0.42m-1.69,2.17c-0.77,1.66 -1.18,3.2 -1.13,4.58c0.05,1.38 0.54,2.76 1.46,4.17c0,0.05 0.03,0.08 0.05,0.1l-0.03,-0.1c-1.12,-2.43 -1.24,-5.32 -0.35,-8.75" class="st0"/>
   <path id="svg_536" d="m45.76262,15.52367c-0.05,-1.38 0.36,-2.92 1.13,-4.58c-0.9,3.43 -0.77,6.32 0.36,8.75l-0.03,0c-0.93,-1.41 -1.41,-2.79 -1.46,-4.17"/>
   <path id="svg_537" fill="#E29D9F" d="m47.27262,19.79367c-0.03,-0.03 -0.05,-0.05 -0.05,-0.1l0.03,0l0.02,0.1z" class="st61"/>
   <polygon id="svg_538" fill="#8F8291" points="50.31261444091797,15.243667602539062 50.342613220214844,15.273666381835938 50.342613220214844,15.293663024902344 " class="st2"/>
   <polygon id="svg_539" fill="#E29D9F" points="50.31261444091797,15.243667602539062 50.342613220214844,15.293663024902344 50.31261444091797,15.32366943359375 " class="st61"/>
   <path id="svg_540" d="m55.09262,14.58367c3.48,0.26 6.09,1.38 7.8,3.4c0.64,0.77 1.18,1.59 1.59,2.48l0.13,-1.41c-0.33,-0.56 -0.69,-1.07 -1.13,-1.59c-1.82,-2.17 -4.6,-3.4 -8.31,-3.66c-1.82,-0.13 -3.48,0 -4.99,0.38c-1.46,0.36 -2.89,1.02 -4.3,1.92c-0.31,0.23 -0.95,0.82 -1.97,1.79c-0.87,0.79 -1.56,1.94 -2.15,3.45c-0.62,1.54 -0.95,3.2 -1.05,4.99c-0.13,1.82 -0.05,3.33 0.15,4.53c0.18,1.1 0.61,1.82 1.25,2.23c0,-0.15 -0.05,-0.31 -0.1,-0.49c-0.1,-0.26 -0.23,-0.69 -0.36,-1.25c-0.15,-0.54 -0.26,-1.41 -0.28,-2.58c-0.05,-1.18 -0.02,-2.22 0.1,-3.15c0.1,-0.92 0.36,-2.05 0.77,-3.35c0.56,-1.92 1.3,-3.25 2.23,-4.07c0.61,-0.56 1.23,-1.02 1.84,-1.43c1.33,-0.87 2.69,-1.48 4.07,-1.87c1.44,-0.35 3,-0.45 4.71,-0.32"/>
   <path id="svg_541" fill="#FFFFFF" d="m62.89262,17.98367c-1.71,-2.02 -4.32,-3.15 -7.8,-3.4c-1.71,-0.13 -3.27,-0.03 -4.71,0.33c-1.38,0.38 -2.74,1 -4.07,1.87c-0.61,0.41 -1.23,0.87 -1.84,1.43c-0.92,0.82 -1.66,2.15 -2.23,4.07c-0.41,1.3 -0.67,2.43 -0.77,3.35c-0.13,0.92 -0.15,1.97 -0.1,3.15c0.03,1.18 0.13,2.05 0.28,2.58c0.13,0.56 0.26,1 0.36,1.25c0.05,0.18 0.1,0.33 0.1,0.49l0,0.03l0.13,-0.05l0,0.08l0.31,0l-0.33,0.03c-0.03,0.03 0.31,0.03 0.95,0l0.33,-0.41c3.63,2.64 5.42,5.8 10.13,6.32c2.97,-0.95 4.91,-1.82 5.8,-2.56c1.61,-1.33 2.61,-2.2 3.04,-2.71c0.41,-0.46 0.77,-0.95 1.07,-1.41c0.28,-0.49 0.54,-0.95 0.72,-1.46c1.23,-2.92 1.56,-5.6 1.05,-8.03c-0.18,-0.87 -0.44,-1.69 -0.85,-2.45c-0.39,-0.92 -0.93,-1.74 -1.57,-2.5" class="st0"/>
   <polygon id="svg_542" fill="#FFFFFF" points="43.152626037597656,33.24366760253906 43.152626037597656,33.24366760253906 43.48261260986328,33.24366760253906 " class="st0"/>
   <path id="svg_543" d="m48.80262,18.16367l0,0.03l0.05,-0.03c-0.02,0.02 -0.02,0 -0.05,0"/>
   <path id="svg_544" fill="#FFFFFF" d="m74.89262,15.27367c-0.18,0.74 -0.54,1.35 -0.97,1.82c-0.72,0.77 -1.61,1.02 -2.71,0.87c0.64,1.48 0.23,2.63 -1.3,3.55c-1.23,0.69 -2.56,0.95 -4.01,0.79c0.18,0.61 0.25,1.56 0.2,2.89c-0.03,0.41 -0.08,0.9 -0.2,1.36c-0.03,0.33 -0.13,0.72 -0.26,1.23c1.46,0.23 2.74,0.26 3.79,0.13c1.33,-0.2 2.27,-0.59 2.89,-1.18c1.64,-1.66 2.61,-3.91 2.86,-6.7c0.12,-1.72 0.04,-3.28 -0.29,-4.76" class="st0"/>
   <path id="svg_545" d="m60.64262,12.91367l0.03,-0.05c0.02,-0.07 0.02,-0.07 -0.03,0.05"/>
   <path id="svg_546" fill="#FFFFFF" d="m74.60262,14.14367c-0.59,-1.74 -1.43,-3.12 -2.53,-4.12c-0.85,-0.74 -1.76,-1.2 -2.84,-1.43c-1.28,-0.28 -2.53,-0.1 -3.76,0.43c-1.05,0.49 -2.07,1.25 -3.02,2.28l-0.5,0.54l-0.01,-0.51c-0.25,-2.48 -0.84,-4.37 -1.79,-5.75c-0.25,-0.36 -0.54,-0.67 -0.87,-0.97c0.36,0.64 0.51,1.38 0.54,2.2c-0.03,1.64 -0.77,3.22 -2.22,4.71c0.38,-0.05 0.69,-0.03 1,0.1c0.41,0.18 0.67,0.48 0.77,0.95c0.18,0.95 -0.28,1.92 -1.41,2.94c0.79,0.07 1.7,0.26 2.71,0.55c0.12,0.06 0.24,0.13 0.36,0.19c0.18,0.08 0.31,0.2 0.48,0.26c2.23,1.35 3.63,3.15 4.27,5.45l0,0.08c1.43,0.2 2.79,-0.05 4.02,-0.77c1.43,-0.84 1.79,-1.97 1.07,-3.4l-0.13,-0.23l0.25,0.03c1.13,0.26 2.05,0 2.76,-0.74c0.51,-0.54 0.84,-1.3 1,-2.2c-0.04,-0.23 -0.09,-0.41 -0.15,-0.59" class="st0"/>
   <path id="svg_547" fill="#FFFFFF" d="m59.11262,12.61367c-0.1,-0.36 -0.31,-0.61 -0.61,-0.77c-0.36,-0.15 -0.79,-0.13 -1.28,0.03l-0.51,0.15l0.38,-0.38c1.64,-1.53 2.46,-3.12 2.48,-4.81c0,-1.13 -0.33,-2.1 -1.07,-2.86c-0.41,-0.31 -0.87,-0.51 -1.38,-0.74c-1.38,-0.59 -2.81,-0.74 -4.35,-0.46c-1.53,0.26 -2.68,0.95 -3.38,2.12c1.07,-0.41 2,-0.46 2.76,-0.18c0.87,0.28 1.48,0.95 1.87,1.92c0.33,0.9 0.38,1.94 0.18,3.09c-0.18,1.07 -0.56,2.05 -1.12,2.89c1.25,-0.36 2.07,-0.08 2.46,0.84c0.28,0.74 0.18,1.51 -0.28,2.35c0.23,-0.08 0.46,-0.13 0.69,-0.2c0.41,-0.08 0.89,-0.13 1.43,-0.13l0.23,0c1.14,-1 1.65,-1.97 1.5,-2.86" class="st0"/>
   <path id="svg_548" d="m42.95262,9.66367c0.1,0.05 0.23,0.13 0.38,0.18c0.03,0.03 0.05,0.05 0.08,0.08c0,-0.03 0,-0.13 0.08,-0.31c0.23,-0.72 0.72,-1.23 1.41,-1.51c0.33,-0.15 0.69,-0.18 1,-0.08c1.18,0.23 2.23,0.79 3.12,1.69l0.71,0.64l-0.26,-0.77c-0.15,-0.13 -0.41,-0.38 -0.77,-0.74c-0.36,-0.36 -0.87,-0.74 -1.56,-1.13c-0.72,-0.43 -1.43,-0.51 -2.2,-0.36c-0.74,0.18 -1.25,0.64 -1.56,1.33c-0.33,0.73 -0.46,1.04 -0.43,0.98"/>
   <path id="svg_549" fill="#FFFFFF" d="m43.33262,9.84367c-0.15,-0.05 -0.28,-0.13 -0.38,-0.18c-0.01,0.01 0.03,0.15 0.11,0.41c0,0 0,0 0,0c-0.25,-0.06 -0.5,-0.11 -0.75,-0.15c-0.04,-0.01 -0.09,-0.01 -0.13,-0.02c-0.23,-0.03 -0.46,-0.05 -0.7,-0.07c-0.12,-0.01 -0.23,0 -0.35,-0.01c-0.18,0 -0.37,-0.01 -0.56,0c-0.33,0.01 -0.66,0.04 -1.01,0.09c-1.51,0.21 -2.92,0.87 -4.17,1.97c-1.28,1.15 -2.07,2.17 -2.35,3.2c-0.33,0.97 -0.46,2.04 -0.39,3.15c0.03,1.15 0.41,2.58 1.05,4.37c0.08,0.22 0.17,0.43 0.25,0.64c0.04,0.09 0.08,0.18 0.12,0.27c0.05,0.11 0.09,0.21 0.14,0.32c0.06,0.12 0.11,0.24 0.17,0.35c0.03,0.06 0.06,0.12 0.09,0.18c0.07,0.14 0.14,0.26 0.21,0.39c0.02,0.03 0.04,0.07 0.05,0.1c0.08,0.14 0.16,0.27 0.24,0.4c0.01,0.02 0.02,0.03 0.03,0.05c0.09,0.14 0.17,0.26 0.26,0.39c0,0.01 0.01,0.01 0.01,0.02c0.09,0.13 0.19,0.25 0.28,0.36c0,0 0,0 0,0c0.14,0.17 0.29,0.33 0.44,0.48l0.2,-0.01c-0.15,0.1 -0.37,0.14 -0.64,0.13c-0.02,0 -0.04,-0.01 -0.06,-0.01c-0.12,-0.01 -0.25,-0.02 -0.39,-0.05c-0.17,-0.03 -0.35,-0.08 -0.54,-0.14c-0.87,-0.28 -1.61,-1.1 -2.2,-2.53c-0.59,2.35 -0.31,3.94 0.79,4.76c1.1,0.77 2.1,0.87 2.94,0.26c0.19,-0.14 0.36,-0.31 0.51,-0.48c0.12,-0.14 0.22,-0.29 0.31,-0.45c0.02,-0.04 0.05,-0.07 0.07,-0.11c0.11,-0.2 0.2,-0.42 0.28,-0.65c0,0 0,0 0,0c0.08,-0.24 0.13,-0.49 0.17,-0.76c0,0 0,0 0,-0.01c0.02,-0.12 0.05,-0.23 0.06,-0.35l-0.06,-0.01c0.05,-0.86 0.09,-1.61 0.13,-2.23c0,-0.01 0,-0.01 0,-0.02c0.01,-0.2 0.03,-0.39 0.04,-0.57c0,-0.01 0,-0.01 0,-0.02c0.01,-0.17 0.03,-0.34 0.04,-0.49c0,-0.02 0,-0.03 0,-0.05c0.01,-0.14 0.02,-0.27 0.04,-0.38c0,-0.04 0.01,-0.06 0.01,-0.1c0.01,-0.09 0.02,-0.18 0.03,-0.26c0.01,-0.11 0.03,-0.2 0.04,-0.28c0,-0.36 0.18,-1 0.51,-1.87c0.33,-0.87 0.79,-1.56 1.38,-2.02l0.33,-0.31c0.61,-0.36 1.25,-0.72 1.92,-0.97c0.64,-0.31 1.2,-0.49 1.64,-0.56c0.35,-0.07 0.83,-0.13 1.43,-0.13l-0.02,-0.05c1.6,0.27 2.94,0.95 4.02,2.04c0,0 0,0 0,0l0,0c0.56,0.56 1.05,1.23 1.47,2.02c0.02,-0.12 0.03,-0.25 0.04,-0.37c0.19,-0.29 0.4,-0.57 0.61,-0.83c0.04,-0.05 0.08,-0.1 0.12,-0.14c0.21,-0.26 0.43,-0.51 0.66,-0.75c0.82,-0.77 1.66,-1.36 2.61,-1.69l-0.05,0l0.36,-0.15c0.56,-0.87 0.69,-1.64 0.41,-2.38c-0.36,-0.87 -1.18,-1.07 -2.46,-0.64l-0.36,0.15l0.23,-0.31c0.64,-0.9 1.05,-1.92 1.28,-3.07c0.18,-1.13 0.13,-2.12 -0.18,-2.99c-0.36,-0.92 -0.92,-1.53 -1.71,-1.79c-0.82,-0.26 -1.79,-0.18 -2.86,0.31l-0.1,0.2c-0.39,0.82 -0.51,1.64 -0.41,2.48c0.02,0.41 0.13,0.87 0.33,1.36c0,0.05 0.03,0.1 0.05,0.13l0.21,0.52l-0.24,-0.21c-0.17,-0.16 -0.34,-0.31 -0.52,-0.45c-0.78,-0.63 -1.64,-1.05 -2.6,-1.24c-0.31,-0.1 -0.67,-0.08 -1,0.08c-0.69,0.28 -1.18,0.79 -1.41,1.51c-0.03,0.07 -0.04,0.12 -0.05,0.17c-0.02,0.07 -0.02,0.12 -0.02,0.14c0,-0.04 -0.03,-0.06 -0.05,-0.09" class="st0"/>
   <path id="svg_550" d="m75.30262,13.89367c-0.59,-1.92 -1.54,-3.38 -2.74,-4.45c-0.92,-0.84 -1.97,-1.35 -3.14,-1.61c-1.46,-0.28 -2.84,-0.13 -4.25,0.49c-0.43,0.2 -0.92,0.59 -1.51,1.12c-0.41,0.36 -0.79,0.79 -1.15,1.2c-0.05,0.09 -0.12,0.17 -0.19,0.26c-0.29,-2.79 -0.79,-4.71 -1.52,-5.79c-0.84,-1.15 -1.94,-2 -3.35,-2.58c-1.51,-0.64 -3.09,-0.82 -4.76,-0.54c-2.1,0.38 -3.5,1.41 -4.27,3.17c-0.26,0.54 -0.36,1.18 -0.36,1.87c0,0.71 0.15,1.47 0.43,2.24c0.18,0.14 0.35,0.29 0.52,0.45l0.24,0.21l-0.21,-0.52c-0.02,-0.03 -0.05,-0.08 -0.05,-0.13c-0.2,-0.49 -0.31,-0.95 -0.33,-1.36c-0.1,-0.84 0.02,-1.66 0.41,-2.48l0.1,-0.2c1.08,-0.49 2.05,-0.56 2.86,-0.31c0.79,0.26 1.36,0.87 1.71,1.79c0.31,0.87 0.36,1.87 0.18,2.99c-0.23,1.15 -0.64,2.17 -1.28,3.07l-0.23,0.31l0.36,-0.15c1.28,-0.43 2.1,-0.23 2.46,0.64c0.28,0.74 0.15,1.51 -0.41,2.38l-0.36,0.15l0.05,0c-0.95,0.33 -1.79,0.92 -2.61,1.69c-0.23,0.24 -0.45,0.49 -0.66,0.75c-0.04,0.05 -0.08,0.09 -0.12,0.14c-0.21,0.27 -0.42,0.54 -0.61,0.83c-0.01,0.12 -0.02,0.25 -0.04,0.37c-0.42,-0.79 -0.91,-1.46 -1.47,-2.02c0,0 0,0 0,0c-1.08,-1.09 -2.42,-1.77 -4.02,-2.04l0.02,0.05c-0.6,0 -1.08,0.06 -1.43,0.13c-0.44,0.08 -1,0.26 -1.64,0.56c-0.67,0.26 -1.31,0.61 -1.92,0.97l-0.33,0.31c-0.59,0.46 -1.05,1.15 -1.38,2.02c-0.33,0.87 -0.51,1.51 -0.51,1.87c-0.01,0.08 -0.03,0.17 -0.04,0.28c-0.01,0.08 -0.02,0.17 -0.03,0.26c0,0.03 -0.01,0.06 -0.01,0.1c-0.01,0.12 -0.02,0.25 -0.04,0.38c0,0.02 0,0.03 0,0.05c-0.01,0.15 -0.03,0.31 -0.04,0.49c0,0.01 0,0.01 0,0.02c-0.01,0.18 -0.03,0.37 -0.04,0.57c0,0.01 0,0.01 0,0.02c-0.04,0.62 -0.09,1.37 -0.13,2.23l0.06,0.01c-0.01,0.13 -0.04,0.23 -0.06,0.35c0,0 0,0 0,0.01c-0.04,0.27 -0.1,0.53 -0.17,0.76c0,0 0,0 0,0c-0.08,0.23 -0.16,0.45 -0.28,0.65c-0.02,0.04 -0.05,0.07 -0.07,0.11c-0.1,0.16 -0.19,0.31 -0.31,0.45c-0.15,0.18 -0.32,0.34 -0.51,0.48c-0.84,0.61 -1.84,0.51 -2.94,-0.26c-1.1,-0.82 -1.38,-2.4 -0.79,-4.76c0.59,1.43 1.33,2.25 2.2,2.53c0.19,0.06 0.37,0.1 0.54,0.14c0.14,0.03 0.27,0.04 0.39,0.05c0.02,0 0.04,0.01 0.06,0.01c0.27,0.01 0.49,-0.03 0.64,-0.13l-0.2,0.01c-0.15,-0.14 -0.3,-0.3 -0.44,-0.48c0,0 0,0 0,0c-0.1,-0.11 -0.19,-0.23 -0.28,-0.36c0,-0.01 -0.01,-0.01 -0.01,-0.02c-0.09,-0.12 -0.18,-0.25 -0.26,-0.39c-0.01,-0.02 -0.02,-0.03 -0.03,-0.05c-0.08,-0.13 -0.16,-0.26 -0.24,-0.4c-0.02,-0.03 -0.04,-0.07 -0.05,-0.1c-0.07,-0.13 -0.14,-0.26 -0.21,-0.39c-0.03,-0.06 -0.06,-0.12 -0.09,-0.18c-0.06,-0.12 -0.11,-0.23 -0.17,-0.35c-0.05,-0.1 -0.09,-0.21 -0.14,-0.32c-0.04,-0.09 -0.08,-0.18 -0.12,-0.27c-0.09,-0.2 -0.17,-0.42 -0.25,-0.64c-0.64,-1.79 -1.02,-3.22 -1.05,-4.37c-0.08,-1.1 0.05,-2.17 0.39,-3.14c0.28,-1.02 1.07,-2.05 2.35,-3.2c1.25,-1.1 2.66,-1.76 4.17,-1.97c0.35,-0.05 0.68,-0.07 1.01,-0.09c0.19,-0.01 0.38,0 0.56,0c0.12,0 0.24,0 0.35,0.01c0.24,0.01 0.47,0.04 0.7,0.07c0.04,0.01 0.09,0.01 0.13,0.02c0.24,0.03 0.47,0.08 0.7,0.14c0.11,1.58 0.48,2.76 1.17,3.52c0.38,0.41 0.74,0.67 1.15,0.74c0.41,0.13 0.77,0 1.02,-0.33c0.23,-0.33 0.31,-0.74 0.23,-1.2c-0.08,-0.38 -0.31,-0.84 -0.69,-1.33c-0.31,-0.41 -0.69,-0.79 -1.1,-1.1c-0.33,-0.2 -0.84,-0.44 -1.5,-0.71c-0.26,-0.16 -0.73,-0.33 -1.42,-0.49c-0.79,-0.2 -1.61,-0.23 -2.43,-0.1c-0.84,0.13 -1.69,0.38 -2.58,0.77c-0.89,0.41 -1.92,1.3 -3.12,2.66c-0.92,1.08 -1.51,2.48 -1.76,4.22c-0.18,1.46 -0.05,2.79 0.36,4.02c0.44,1.2 0.77,2.12 1.1,2.76c0.28,0.61 0.59,1.13 0.87,1.46c0.22,0.3 0.52,0.71 0.88,1.22c-0.24,-0.1 -0.5,-0.22 -0.8,-0.38c-0.89,-0.41 -1.56,-1.46 -2.07,-3.07c-0.56,1.2 -0.79,2.46 -0.74,3.71c0.08,1.28 0.44,2.2 1.07,2.79c0.62,0.56 1.31,0.87 2.1,0.84c0.79,0 1.51,-0.28 2.2,-0.74c0.64,-0.51 1.05,-1.51 1.18,-3.02c-0.01,-0.07 -0.03,-0.11 -0.05,-0.16c-0.02,-1.16 0.08,-2.42 0.26,-3.8c0.18,-1.41 0.72,-2.63 1.61,-3.71c0.9,-1.08 2.7,-1.74 5.46,-1.98c2.12,0.25 3.73,1.63 4.8,4.14l0.09,0.42l0.05,-0.1c0.01,0.03 0.02,0.05 0.03,0.07c0.16,-0.22 0.24,-0.45 0.25,-0.67c0.78,-1.67 2.17,-2.89 4.2,-3.72c0.49,-0.2 0.87,-0.36 1.28,-0.44c0.36,-0.08 0.74,-0.1 1.23,-0.1c0.86,0 1.85,0.17 2.97,0.51c0.18,0.09 0.35,0.17 0.54,0.26c0.1,0.08 0.21,0.13 0.31,0.18c2.02,1.23 3.35,2.89 3.94,5.01c-0.03,0 0,0 0,0.05c0.26,0.66 0.36,1.66 0.31,2.94c-0.05,1.13 -0.18,2.1 -0.38,2.89l-0.03,0l0.41,0.08c1.48,0.26 2.58,0.38 3.38,0.36c1.74,-0.05 3.12,-0.54 4.19,-1.43c0.92,-0.82 1.64,-1.82 2.15,-2.99c0.46,-1.15 0.77,-2.48 0.89,-4.07c0.14,-2.05 -0.09,-4.12 -0.75,-6.16m-29.67,-2.08c0.31,0.41 0.49,0.79 0.56,1.1c0.05,0.25 0.03,0.46 -0.13,0.69c-0.21,0.2 -0.41,0.28 -0.72,0.2c-0.31,-0.08 -0.64,-0.28 -0.92,-0.64c-0.77,-0.82 -1.15,-1.84 -1.18,-3.15c0.98,0.37 1.75,0.96 2.39,1.8m-2.65,-2.13c0,0.06 0.01,0.11 0.01,0.16c-0.03,-0.11 -0.05,-0.17 -0.04,-0.18c0.01,0.01 0.02,0.02 0.03,0.02m14.39,5.79c-0.54,0 -1.02,0.05 -1.43,0.13c-0.23,0.08 -0.46,0.13 -0.69,0.2c0.46,-0.84 0.56,-1.61 0.28,-2.35c-0.39,-0.92 -1.2,-1.2 -2.45,-0.84c0.56,-0.84 0.95,-1.82 1.12,-2.89c0.2,-1.15 0.15,-2.2 -0.18,-3.09c-0.38,-0.97 -1,-1.64 -1.87,-1.92c-0.77,-0.28 -1.69,-0.23 -2.76,0.18c0.69,-1.18 1.84,-1.87 3.38,-2.12c1.53,-0.28 2.97,-0.13 4.35,0.46c0.51,0.23 0.97,0.43 1.38,0.74c0.74,0.77 1.07,1.74 1.07,2.86c-0.02,1.69 -0.84,3.27 -2.48,4.81l-0.38,0.38l0.51,-0.15c0.48,-0.15 0.92,-0.18 1.28,-0.03c0.31,0.15 0.51,0.41 0.61,0.77c0.15,0.9 -0.36,1.87 -1.51,2.86l-0.23,0zm4.44,1.22l0.01,-0.28c-0.4,-0.14 -0.78,-0.26 -1.15,-0.36c-0.14,-0.07 -0.29,-0.14 -0.44,-0.2l-0.02,0.08c-0.83,-0.22 -1.59,-0.37 -2.26,-0.43c1.13,-1.02 1.59,-2 1.41,-2.94c-0.1,-0.46 -0.36,-0.77 -0.77,-0.95c-0.31,-0.13 -0.61,-0.15 -1,-0.1c1.46,-1.48 2.2,-3.07 2.22,-4.71c-0.03,-0.82 -0.18,-1.56 -0.54,-2.2c0.33,0.31 0.61,0.61 0.87,0.97c0.95,1.38 1.53,3.27 1.79,5.75l0,0.06c-0.09,0.17 -0.14,0.38 -0.16,0.63l0.16,-0.18l0.04,2.45l0.43,-0.9c0.05,-0.74 0.05,-1.4 -0.06,-2.01l0.08,-0.09c0.95,-1.02 1.97,-1.79 3.02,-2.28c1.23,-0.54 2.48,-0.72 3.76,-0.43c1.08,0.23 2,0.69 2.84,1.43c1.1,1 1.94,2.38 2.53,4.12c0.05,0.18 0.1,0.36 0.15,0.56c-0.15,0.89 -0.48,1.66 -1,2.2c-0.72,0.74 -1.64,1 -2.76,0.74l-0.25,-0.03l0.13,0.23c0.72,1.43 0.36,2.56 -1.07,3.4c-1.23,0.72 -2.58,0.97 -4.02,0.77l0,-0.08c-0.58,-2.16 -1.89,-3.89 -3.94,-5.22m13.36,3.33c-0.25,2.79 -1.23,5.04 -2.86,6.7c-0.61,0.59 -1.56,0.97 -2.89,1.18c-1.05,0.13 -2.33,0.1 -3.79,-0.13c0.13,-0.51 0.23,-0.89 0.26,-1.23c0.13,-0.46 0.18,-0.95 0.2,-1.36c0.05,-1.33 -0.03,-2.28 -0.2,-2.89c1.46,0.15 2.79,-0.1 4.01,-0.79c1.53,-0.92 1.94,-2.07 1.3,-3.55c1.1,0.15 1.99,-0.1 2.71,-0.87c0.43,-0.46 0.79,-1.07 0.97,-1.82c0.34,1.49 0.42,3.05 0.29,4.76"/>
   <path id="svg_551" fill="#FFFFFF" d="m45.35262,13.81367c0.31,0.08 0.51,0 0.72,-0.2c0.15,-0.23 0.18,-0.43 0.13,-0.69c-0.08,-0.31 -0.26,-0.69 -0.56,-1.1c-0.64,-0.84 -1.41,-1.43 -2.38,-1.79c0.03,1.3 0.41,2.33 1.18,3.15c0.27,0.35 0.6,0.55 0.91,0.63" class="st0"/>
   <path id="svg_552" d="m60.30262,76.58367c-0.5,-0.81 -1.05,-2.3 -1.42,-3.37c-1.24,-4.12 -1.95,-8.94 -2.2,-14.47c-0.05,-0.73 -0.14,-1.07 -0.26,-1.31c0.6,-0.36 1.19,-0.78 1.72,-1.29l-1.31,0.12c0,0 -1.92,1.47 -5.06,2.19c-0.09,-0.77 -0.24,-1.33 -0.45,-1.7c-0.6,6.88 -0.41,12.94 0.94,18.03c0.18,0.85 0.5,1.76 0.83,2.62c0.04,0.11 0.08,0.22 0.12,0.33l0,0.05c0.02,0.01 0.02,0.01 0.04,0.01c0.49,1.19 1,2.23 1.21,2.79c0.41,1.05 0.09,1.22 -1.25,1.42c-1.34,0.2 -4.84,0.15 -6.69,-0.06c-1.8,-0.2 -2.07,-1.57 -2.18,-2.06c-0.03,-0.11 -0.06,-0.38 -0.09,-0.71c0.02,-0.03 0.04,-0.05 0.05,-0.09c-0.1,-0.75 -0.17,-1.49 -0.23,-2.23c-0.03,-0.46 -0.05,-0.78 -0.05,-0.78l-0.01,-0.02c-0.44,-6.76 0.65,-13.35 3.18,-19.73c-0.41,0.29 -0.87,0.99 -1.36,2.07c-6.17,-0.59 -6.41,-7.73 -6.41,-7.73s-0.58,2.33 1.05,5.23c0.33,0.59 0.74,1.07 1.19,1.46c-0.03,0.06 -1.33,2.54 -2.17,5.33c-0.03,0.04 -0.05,0.09 -0.07,0.15c-0.05,0.18 -0.08,0.36 -0.13,0.55c-0.07,0.28 -0.14,0.56 -0.2,0.84c-0.94,4.26 -0.84,8.57 0.44,12.84c0.02,0.06 0.05,0.11 0.09,0.15c0.26,0.79 0.55,1.43 0.87,1.99c0.61,1.05 0.18,1.53 -1.09,1.61c-1.27,0.09 -4.88,0.26 -6.41,-0.13c-1.26,-0.32 -1.92,-0.55 -2.12,-3.03c-0.02,-0.3 -0.04,-0.59 -0.05,-0.88c0.02,-0.06 0.02,-0.14 0.02,-0.24c-0.3,-6.08 0.95,-11.85 3.43,-17.04c0.18,-0.28 0.65,-0.79 1.7,-0.73c0.01,0.12 0.01,0.25 0.01,0.41c0,0.67 0.61,-0.48 0.25,-1.83c-0.2,-0.72 -0.51,-1.87 -0.89,-3.43c-0.41,-1.59 -0.59,-2.99 -0.54,-4.3c0.03,-0.97 0.15,-1.87 0.38,-2.68c0.15,-0.72 0.31,-1.25 0.44,-1.64c0.2,-0.56 0.46,-1.05 0.72,-1.48c0.59,-0.92 1.2,-1.53 1.89,-1.84c0.26,-0.64 0.08,-0.89 -0.49,-0.72c-0.72,0.46 -1.38,1.13 -1.99,2.05c-0.56,0.84 -1,1.97 -1.36,3.38c-0.23,0.95 -0.33,2.02 -0.33,3.25c0.03,1.2 0.23,2.56 0.64,4.09c0.41,1.51 0.74,2.66 0.97,3.43c0.12,0.38 0.19,0.65 0.24,0.9c-0.25,0.02 -0.96,0.09 -1.65,0.28c0,0 -0.19,0.14 -0.37,0.31c-0.13,0.01 -0.25,0.08 -0.31,0.21c-1.7,3.56 -2.76,7.36 -3.18,11.35l-0.03,-0.01c0,0 -0.03,0.39 -0.07,1.08c-0.04,0.5 -0.06,1 -0.08,1.51c-0.05,1.05 -0.09,2.36 -0.11,3.86c-0.04,3.49 1.13,4.23 3.18,4.58c0.89,0.15 7.26,0.48 7.98,-0.61c0.31,-0.47 0.25,-1.09 0.05,-1.69c0.64,0 1.63,-0.07 2.11,-0.11c0.19,1.55 0.62,2.36 1.15,2.83c0.66,0.59 1.49,0.67 1.69,0.7c0.41,0.06 1.42,0.32 3.34,0.29c4.39,-0.07 4.74,-0.12 5.53,-0.93c0.39,-0.41 0.25,-1.13 -0.05,-1.89c1.08,0 3.54,-0.03 4.81,-0.32c1.71,-0.39 1.24,-1.84 0.4,-3.21m-17.08,-1.64l-0.05,-0.07l0.15,1.87c0.01,0.09 0.01,0.18 0.02,0.28l0.04,0.45c0,0.3 0.02,0.58 0.03,0.84c-0.57,0.13 -1.77,0.12 -2.38,0.1c-0.15,-0.31 -0.3,-0.59 -0.42,-0.81c-0.13,-0.24 -0.25,-0.57 -0.37,-0.93c-1.32,-4.52 -1.38,-9.09 -0.16,-13.58c0.4,-1.33 1.07,-3.13 2.2,-5.27c1.37,0.94 2.86,1.18 3.29,1.23c-0.24,0.59 -0.5,1.26 -0.76,2.03c-1.26,4.53 -1.77,9.16 -1.59,13.86m15.77,4.29c-0.96,0.19 -3.37,0.16 -4.17,0.15c-0.24,-0.5 -0.49,-0.97 -0.65,-1.34c-0.43,-1 -0.84,-2.31 -1.05,-3.01c-1.38,-4.92 -1.5,-9.21 -1.24,-15.04c-0.01,-0.31 -0.02,-0.6 -0.04,-0.87c0.81,-0.15 2.5,-0.54 4.18,-1.46c-0.06,7.26 0.81,12.48 2.94,17.58l0.06,0.04c0.46,1.12 0.92,2.1 1.22,2.7c0.58,1.13 -0.7,1.14 -1.25,1.25"/>
   <path id="svg_553" d="m67.80262,14.83367c-0.31,-0.82 -0.69,-1.56 -1.12,-2.17c-0.38,-0.56 -0.72,-0.9 -0.97,-1.02c-0.08,-0.05 -0.21,-0.05 -0.26,-0.05c-0.89,0.26 -1.97,1.13 -3.25,2.69c-1.33,1.59 -2.05,3.22 -2.15,4.83c0.59,-1.43 1.51,-2.89 2.71,-4.37c1.07,-1.28 1.97,-2.07 2.69,-2.33c0.18,0.13 0.38,0.36 0.61,0.72c0.41,0.56 0.74,1.23 1.05,1.97c0.82,2.17 0.95,4.45 0.44,6.85c-0.31,1.38 -0.64,2.43 -0.97,3.2c-0.56,1.33 -1.38,2.45 -2.45,3.38l-0.03,0l-0.25,0.23c0.54,0.03 1.28,-0.46 2.1,-1.38c0.46,-0.64 0.92,-1.36 1.3,-2.15c0.23,-0.46 0.43,-0.9 0.59,-1.36c0.13,-0.46 0.28,-1.05 0.43,-1.74c0.58,-2.59 0.43,-5.02 -0.47,-7.3"/>
   <path id="svg_554" fill="#FFFFFF" d="m66.06262,13.12367l0,0c-0.23,-0.36 -0.43,-0.59 -0.61,-0.72c-0.72,0.26 -1.61,1.05 -2.69,2.33c-1.2,1.48 -2.12,2.94 -2.71,4.37c-0.31,1.05 -0.08,1.84 0.72,2.38c0.77,0.54 1.3,0.92 1.61,1.15c0.36,0.23 0.74,0.82 1.23,1.79c0.62,-1.18 1.13,-2.61 1.51,-4.3c0.28,-1.13 0.38,-2.25 0.38,-3.38c0.33,0.97 0.31,2.3 -0.05,3.96c-0.33,1.61 -0.92,2.86 -1.79,3.76c0.18,0.97 0.31,2.3 0.43,4.04l0.03,0c1.08,-0.92 1.89,-2.05 2.45,-3.38c0.33,-0.77 0.67,-1.82 0.97,-3.2c0.51,-2.4 0.38,-4.68 -0.44,-6.85c-0.3,-0.73 -0.63,-1.39 -1.04,-1.95" class="st0"/>
   <path id="svg_555" d="m65.50262,16.75367c0,1.13 -0.1,2.25 -0.38,3.38c-0.38,1.69 -0.89,3.12 -1.51,4.3c-0.03,0.03 -0.03,0.08 -0.08,0.15c0.05,-0.03 0.08,-0.08 0.13,-0.1c0.87,-0.89 1.46,-2.15 1.79,-3.76c0.36,-1.67 0.38,-3 0.05,-3.97"/>
  </g>
  <g id="svg_556">
   <path id="svg_557" fill="#FFFFFF" d="m41.72262,29.22367c0.08,0.44 0.15,0.9 0.31,1.36l1.15,-1.46l-0.08,-0.43c-0.84,0.38 -1.3,0.56 -1.38,0.53" class="st0"/>
   <path id="svg_558" d="m42.00262,30.73367l-0.04,-0.13c-0.15,-0.44 -0.22,-0.87 -0.3,-1.29l-0.03,-0.2l0.12,0.04c0.06,0 0.31,-0.07 1.33,-0.53l0.09,-0.04l0.1,0.56l-1.27,1.59zm-0.19,-1.44c0.07,0.37 0.13,0.75 0.25,1.13l1.04,-1.32l-0.05,-0.31c-0.81,0.37 -1.11,0.47 -1.24,0.5"/>
   <path id="svg_559" fill="#FFFFFF" d="m43.13262,28.73367l0,-0.51l-1.53,-0.41c0,0.49 0.05,0.95 0.13,1.41l1.4,-0.49z" class="st0"/>
   <path id="svg_560" d="m41.67262,29.32367l-0.01,-0.09c-0.09,-0.52 -0.13,-0.97 -0.13,-1.42l0,-0.1l1.68,0.45l0,0.62l-1.54,0.54zm0,-1.41c0.01,0.38 0.04,0.77 0.11,1.21l1.27,-0.44l0,-0.4l-1.38,-0.37z"/>
   <path id="svg_561" d="m43.63262,32.58367l0,0c-0.23,0 -0.45,-0.06 -0.67,-0.19c-0.71,-0.4 -1.17,-1.24 -1.45,-2.66c-0.26,-1.33 -0.27,-2.67 -0.03,-4.22c0.27,-1.54 0.7,-2.71 1.28,-3.51c0.67,-0.94 1.46,-1.21 2.18,-0.77c0.67,0.39 1.14,1.26 1.42,2.65c0.26,1.29 0.27,2.68 0.03,4.22c-0.22,1.42 -0.65,2.59 -1.28,3.5c-0.47,0.66 -0.97,0.98 -1.48,0.98m0.62,-10.95c-0.4,0 -0.77,0.4 -1,0.73c-0.53,0.72 -0.93,1.81 -1.18,3.25c-0.23,1.48 -0.22,2.75 0.02,4.01c0.24,1.22 0.62,1.95 1.16,2.25c0.46,0.26 0.89,0.06 1.38,-0.61c0.57,-0.82 0.96,-1.92 1.17,-3.24c0.23,-1.48 0.22,-2.79 -0.02,-4.01c-0.24,-1.21 -0.62,-1.95 -1.14,-2.26c-0.13,-0.08 -0.26,-0.12 -0.39,-0.12"/>
   <path id="svg_562" d="m42.87262,24.16367c0.36,-0.95 0.82,-1.46 1.33,-1.56c0.51,-0.08 0.95,0.26 1.33,1.02c0.36,0.77 0.54,1.79 0.51,2.97c0.03,1.23 -0.15,2.28 -0.54,3.2c-0.36,0.95 -0.82,1.46 -1.35,1.59c-0.51,0.08 -0.95,-0.26 -1.3,-1.05c-0.38,-0.79 -0.54,-1.76 -0.54,-2.97c0,-1.21 0.18,-2.28 0.56,-3.2"/>
   <path id="svg_563" fill="#FFFFFF" d="m43.92262,27.43367c-0.05,-0.03 -0.08,-0.03 -0.13,0c-0.05,0 -0.08,0 -0.1,0.03c0,0.02 -0.05,0.02 -0.05,0.08c-0.03,0.05 -0.03,0.15 -0.03,0.2l0,0.08c0.03,0.05 0.08,0.13 0.1,0.15c0,-0.03 -0.03,-0.08 -0.03,-0.13c-0.03,-0.03 -0.05,-0.03 -0.05,-0.03c-0.03,-0.1 -0.03,-0.2 0,-0.26c0,-0.02 0.05,-0.05 0.05,-0.08c0.03,-0.02 0.05,-0.05 0.08,-0.05c0.05,-0.03 0.1,0 0.13,0.03c0,0 0.03,0 0.05,0.02c0.05,0.08 0.1,0.13 0.13,0.23c0.03,0.02 0.03,0.05 0.03,0.08l0,-0.13c-0.03,-0.1 -0.08,-0.15 -0.13,-0.2c-0.02,-0.02 -0.02,-0.02 -0.05,-0.02" class="st0"/>
   <path id="svg_564" fill="#FFFFFF" d="m43.90262,27.46367c-0.03,-0.03 -0.08,-0.05 -0.13,-0.03c-0.03,0 -0.05,0.03 -0.08,0.05c0,0.03 -0.05,0.05 -0.05,0.08c-0.03,0.05 -0.03,0.15 0,0.26c0,0 0.03,0 0.05,0.03c0,0.05 0.03,0.1 0.03,0.13c0.03,0.02 0.08,0.08 0.13,0.08l0.05,0c0.08,-0.03 0.1,-0.08 0.15,-0.15c0.02,-0.05 0.02,-0.08 0.05,-0.1c0,-0.03 0,-0.05 -0.03,-0.08c-0.02,-0.1 -0.08,-0.15 -0.13,-0.23c-0.02,-0.04 -0.04,-0.04 -0.04,-0.04" class="st0"/>
   <path id="svg_565" fill="#FFFFFF" d="m43.90262,28.31367l0,0c-0.04,0 -0.09,-0.01 -0.13,-0.03c-0.03,-0.01 -0.06,-0.02 -0.08,-0.03c-0.02,-0.01 -0.08,-0.05 -0.09,-0.06c-0.04,-0.04 -0.1,-0.13 -0.12,-0.19c-0.03,-0.03 -0.06,-0.07 -0.07,-0.12c-0.02,-0.08 -0.06,-0.27 0.02,-0.42l0,0c0.01,-0.03 0.03,-0.06 0.05,-0.08c0.01,-0.02 0.03,-0.04 0.04,-0.06c0.04,-0.04 0.1,-0.1 0.2,-0.11c0.15,-0.04 0.22,0 0.29,0.06c0.03,0.02 0.06,0.03 0.08,0.05l0.06,0.08c0.04,0.05 0.08,0.12 0.12,0.21c0.05,0.07 0.05,0.15 0.05,0.18c0,0.07 0,0.18 -0.05,0.28c-0.01,0.02 -0.12,0.23 -0.31,0.23c0.02,0 -0.02,0.01 -0.06,0.01" class="st0"/>
   <path id="svg_566" fill="#FFFFFF" d="m45.16262,26.61367c-0.39,0 -0.64,-0.28 -0.82,-0.52c-0.28,-0.37 -0.45,-0.8 -0.5,-1.3c-0.11,-0.51 -0.11,-0.98 0.01,-1.4c0.12,-0.58 0.45,-0.78 0.7,-0.85c0.42,-0.1 0.75,0.19 0.99,0.48c0.26,0.35 0.42,0.76 0.51,1.32c0.08,0.53 0.08,0.97 0,1.37c-0.1,0.45 -0.35,0.77 -0.69,0.87c-0.09,0.03 -0.15,0.03 -0.2,0.03" class="st0"/>
   <path id="svg_567" d="m45.16262,26.68367c-0.42,0 -0.69,-0.3 -0.88,-0.55c-0.29,-0.39 -0.46,-0.82 -0.52,-1.34c-0.11,-0.52 -0.11,-1 0.02,-1.42c0.14,-0.65 0.53,-0.84 0.75,-0.9c0.37,-0.09 0.72,0.08 1.07,0.51c0.27,0.35 0.43,0.79 0.53,1.36c0.09,0.54 0.08,0.99 0,1.39c-0.1,0.48 -0.37,0.81 -0.74,0.92c-0.1,0.03 -0.16,0.03 -0.23,0.03m-0.44,-4.08c-0.05,0 -0.1,0.01 -0.15,0.02c-0.23,0.06 -0.53,0.24 -0.65,0.79c-0.12,0.4 -0.12,0.86 -0.01,1.36c0.06,0.49 0.22,0.91 0.49,1.27c0.2,0.27 0.46,0.59 0.94,0.47c0.31,-0.09 0.55,-0.39 0.64,-0.81c0.08,-0.39 0.09,-0.81 0,-1.34c-0.09,-0.55 -0.25,-0.96 -0.5,-1.29c-0.26,-0.32 -0.51,-0.47 -0.76,-0.47"/>
   <path id="svg_568" d="m42.94262,33.00367c-0.7,0 -1.23,-0.54 -1.65,-1.65c-0.39,-1.23 -0.53,-2.72 -0.4,-4.45c0.12,-1.71 0.47,-3.28 1.04,-4.79c0.67,-1.53 1.31,-2.29 2.08,-2.46c0.11,-0.03 0.24,-0.05 0.36,-0.05c0.67,0 1.17,0.54 1.55,1.66c0.41,1.19 0.55,2.68 0.4,4.44c-0.1,1.71 -0.45,3.31 -1.04,4.77c-0.56,1.42 -1.24,2.26 -2,2.5c-0.14,0.02 -0.24,0.03 -0.34,0.03m1.43,-12.81c-0.07,0 -0.13,0.01 -0.21,0.03c-0.58,0.13 -1.12,0.82 -1.68,2.11c-0.55,1.44 -0.88,2.96 -1,4.61c-0.12,1.65 0.01,3.06 0.37,4.21c0.47,1.25 0.93,1.25 1.09,1.25c0.06,0 0.12,-0.01 0.18,-0.02c0.55,-0.17 1.12,-0.92 1.6,-2.15c0.57,-1.4 0.91,-2.94 1,-4.59c0.15,-1.68 0.02,-3.09 -0.37,-4.21c-0.27,-0.82 -0.6,-1.24 -0.98,-1.24"/>
  </g>
  <g id="svg_569">
   <path id="svg_570" fill="#FFFFFF" d="m59.16262,32.62367c-0.31,0.39 -0.7,0.77 -1.18,1.15l-1.12,-1.84l0.34,-0.39c1.2,0.69 1.85,1.09 1.96,1.08" class="st0"/>
   <path id="svg_571" d="m57.96262,33.87367l-1.19,-1.96l0.41,-0.47l0.6,0.35c0.74,0.44 1.28,0.75 1.37,0.76l0.18,-0.02l-0.12,0.14c-0.31,0.39 -0.71,0.78 -1.19,1.16l-0.06,0.04zm-1.01,-1.94l1.05,1.72c0.4,-0.32 0.75,-0.66 1.03,-1c-0.19,-0.08 -0.56,-0.29 -1.32,-0.74l-0.49,-0.29l-0.27,0.31z"/>
   <path id="svg_572" fill="#FFFFFF" d="m57.14262,31.55367l0.24,-0.5l2.72,0.32c-0.29,0.45 -0.58,0.87 -0.95,1.28l-2.01,-1.1z" class="st0"/>
   <path id="svg_573" d="m59.17262,32.74367l-2.13,-1.15l0.3,-0.62l2.89,0.34l-0.07,0.1c-0.32,0.49 -0.6,0.89 -0.96,1.29l-0.03,0.04zm-1.93,-1.22l1.9,1.03c0.31,-0.35 0.56,-0.71 0.84,-1.13l-2.54,-0.3l-0.2,0.4z"/>
   <path id="svg_574" d="m55.44262,35.22367c-0.9,0 -1.65,-0.35 -2.29,-1.06c-0.83,-0.92 -1.2,-2.17 -1.11,-3.71c0.08,-1.55 0.58,-2.95 1.52,-4.26c0.88,-1.31 1.99,-2.12 3.28,-2.42c1.24,-0.32 2.36,-0.01 3.21,0.91c0.85,0.95 1.2,2.17 1.09,3.75c-0.05,1.51 -0.56,2.94 -1.49,4.25c-0.88,1.28 -1.98,2.09 -3.27,2.42c-0.33,0.09 -0.64,0.12 -0.94,0.12m2.33,-10.97c-0.25,0 -0.52,0.04 -0.79,0.1c-1.15,0.26 -2.13,0.99 -2.93,2.18c-0.87,1.23 -1.33,2.52 -1.41,3.95c-0.08,1.4 0.24,2.47 0.96,3.28c0.69,0.77 1.54,1.01 2.64,0.76c1.14,-0.29 2.12,-1.02 2.93,-2.18c0.87,-1.22 1.33,-2.54 1.38,-3.95c0.1,-1.42 -0.2,-2.5 -0.93,-3.32c-0.52,-0.54 -1.14,-0.82 -1.85,-0.82"/>
   <path id="svg_575" d="m59.69262,27.17367c-0.19,-1.03 -0.65,-1.7 -1.39,-1.99c-0.74,-0.26 -1.56,-0.11 -2.42,0.47c-0.87,0.63 -1.55,1.55 -2.02,2.7c-0.5,1.18 -0.63,2.26 -0.48,3.29c0.21,1.01 0.68,1.7 1.39,1.99c0.75,0.26 1.56,0.11 2.45,-0.49c0.86,-0.6 1.55,-1.52 2.01,-2.67c0.51,-1.18 0.65,-2.26 0.46,-3.3"/>
   <path id="svg_576" fill="#FFFFFF" d="m55.78262,30.14367c-0.03,-0.01 -0.1,-0.03 -0.12,-0.05c-0.16,-0.04 -0.23,-0.15 -0.26,-0.2c-0.09,-0.06 -0.13,-0.15 -0.12,-0.25c0,-0.01 0,-0.01 0,-0.02c-0.02,-0.04 -0.05,-0.12 -0.05,-0.22c-0.01,-0.05 -0.02,-0.1 0,-0.14c0.02,-0.11 0.07,-0.29 0.24,-0.4c0.04,-0.03 0.08,-0.06 0.14,-0.08c0.12,-0.05 0.24,-0.07 0.39,0.03c0.08,0.03 0.15,0.07 0.19,0.11c0.07,0.04 0.14,0.11 0.18,0.24c0.09,0.16 0.12,0.34 0.08,0.51c-0.05,0.2 -0.12,0.3 -0.17,0.35c-0.02,0.03 -0.04,0.05 -0.07,0.06c-0.18,0.12 -0.34,0.08 -0.43,0.06" class="st0"/>
   <path id="svg_577" fill="#FFFFFF" d="m58.27262,29.67367c-0.04,-0.01 -0.08,-0.02 -0.12,-0.03c-0.03,-0.01 -0.05,-0.02 -0.08,-0.03c-0.41,-0.21 -0.71,-0.56 -0.93,-1.13c-0.19,-0.57 -0.22,-1.11 -0.1,-1.67c0.09,-0.56 0.31,-1.02 0.65,-1.4c0.46,-0.45 0.89,-0.46 1.17,-0.4c0.1,0.02 0.19,0.06 0.28,0.1c0.38,0.16 0.68,0.54 0.88,1.14c0.19,0.44 0.23,0.97 0.12,1.65c-0.11,0.65 -0.34,1.11 -0.72,1.42c-0.39,0.4 -0.84,0.41 -1.15,0.35" class="st0"/>
   <path id="svg_578" d="m58.55262,29.77367c-0.1,0 -0.2,-0.01 -0.3,-0.03c-0.04,-0.01 -0.08,-0.02 -0.12,-0.03c-0.03,-0.01 -0.06,-0.02 -0.09,-0.04c-0.43,-0.21 -0.73,-0.58 -0.96,-1.16c-0.19,-0.58 -0.23,-1.14 -0.1,-1.71c0.09,-0.57 0.32,-1.05 0.67,-1.43c0.39,-0.38 0.82,-0.52 1.24,-0.43c0.1,0.02 0.2,0.06 0.3,0.11c0.4,0.16 0.72,0.57 0.92,1.18c0.19,0.45 0.23,1 0.12,1.69c-0.11,0.67 -0.35,1.15 -0.75,1.46c-0.26,0.25 -0.58,0.39 -0.93,0.39m0.08,-4.71c-0.3,0 -0.6,0.14 -0.88,0.41c-0.32,0.35 -0.54,0.81 -0.63,1.35c-0.12,0.55 -0.09,1.07 0.1,1.63c0.21,0.54 0.49,0.88 0.89,1.08c0.02,0.01 0.04,0.02 0.07,0.03c0.04,0.01 0.07,0.02 0.11,0.03c0.4,0.09 0.79,-0.02 1.09,-0.33c0.37,-0.3 0.6,-0.75 0.7,-1.38c0.11,-0.65 0.07,-1.18 -0.11,-1.61c-0.19,-0.57 -0.48,-0.95 -0.84,-1.1c-0.1,-0.05 -0.18,-0.08 -0.27,-0.1c-0.08,0 -0.15,-0.01 -0.23,-0.01"/>
   <path id="svg_579" d="m54.91262,35.38367l0,0c-0.37,0 -0.73,-0.05 -1.09,-0.15c-1.33,-0.37 -2.26,-1.31 -2.77,-2.78c-0.47,-1.49 -0.41,-3.1 0.18,-4.79c0.58,-1.66 1.53,-2.96 2.9,-3.99c1.37,-0.97 2.74,-1.27 4.06,-0.89c1.33,0.34 2.27,1.29 2.78,2.81c0.48,1.42 0.43,3.01 -0.15,4.73c-0.64,1.76 -1.61,3.08 -2.96,4.02c-1,0.68 -1.98,1.04 -2.95,1.04m2.16,-12.17c-0.84,0 -1.71,0.32 -2.59,0.94c-1.27,0.95 -2.15,2.16 -2.69,3.7c-0.55,1.58 -0.61,3.02 -0.17,4.41c0.45,1.29 1.22,2.08 2.37,2.4c1.13,0.32 2.31,0.05 3.52,-0.81c1.25,-0.87 2.14,-2.09 2.74,-3.73c0.54,-1.59 0.59,-3.05 0.15,-4.35c-0.45,-1.34 -1.22,-2.13 -2.37,-2.43c-0.32,-0.09 -0.65,-0.13 -0.96,-0.13"/>
  </g>
 </g>
</svg>